<?xml version="1.0" encoding="utf-8"?>
<!-- Generator: Adobe Illustrator 22.0.1, SVG Export Plug-In . SVG Version: 6.00 Build 0)  -->
<svg version="1.1" id="Capa_1" xmlns="http://www.w3.org/2000/svg" xmlns:xlink="http://www.w3.org/1999/xlink" x="0px" y="0px"
	 viewBox="0 0 504 501.5" style="enable-background:new 0 0 504 501.5;" xml:space="preserve">
<style type="text/css">
	.st0{fill:#F0C18D;}
	.st1{fill:none;}
</style>
<g>
	<path class="st0" d="M176.1,142.2c35.2,8.4,59.7,33.8,59.7,70.5c0,24.4-8.4,43.6-24.8,57.6c-16.4,14-36.6,20.9-60.7,20.9
		c-37.3,0-69.1-17.4-82-50.6l34.2-19.9c7.3,20.9,23,31.4,47.8,31.4c27.9,0,45.4-15.4,45.4-39.4s-17.4-39.1-45.4-39.1h-9.1
		l-16.1-24.1l52.7-69.4H75.6V42.4h150v34.2L176.1,142.2z"/>
	<path class="st0" d="M340.4,134.5c23.4,0,42.9,7,59,20.9c16.1,13.6,24.1,32.8,24.1,57.2s-8.4,43.6-24.8,57.6
		c-16.4,14-36.6,20.9-60.7,20.9c-38.7,0-70.5-18.5-83.1-52.3l34.5-19.9c6.6,22,22.7,33.2,48.5,33.2c27.6,0,45.4-15.4,45.4-39.4
		s-17.8-39.1-44.7-39.1h-71.2l9.4-131.2H413v37.7h-99.1l-4.2,54.4H340.4z"/>
</g>
<line class="st1" x1="247.1" y1="342.7" x2="230.8" y2="342.7"/>
<polyline class="st1" points="250.1,342.7 247.1,342.7 247.1,342.7 230.8,342.7 228.1,342.7 "/>
<g>
	<path class="st0" d="M182.7,355.6v102.7h-22.2v-81.3h-34.3v38.2c0,32.7-14.8,45.6-41.1,43.1v-20.7c12.5,2.3,18.9-4.7,18.9-23.4
		v-58.5H182.7z"/>
	<path class="st0" d="M226,416.4c3.3,15.6,15.8,24.2,32.9,24.2c11.7,0,20.5-4.3,26.5-12.7l18.3,10.7c-10.1,15-25.1,22.4-45,22.4
		c-16.6,0-30.2-5.1-40.5-15.2c-10.3-10.3-15.4-23.2-15.4-38.8c0-15.4,5.1-28.1,15.2-38.4c10.1-10.5,23.2-15.6,39-15.6
		c15,0,27.3,5.3,37,15.8c9.7,10.5,14.6,23.4,14.6,38.4c0,2.3-0.2,5.3-0.8,9.2H226z M286.2,398.3c-3.1-16.6-14.8-25.3-29.4-25.3
		c-16.4,0-27.9,9.7-31,25.3H286.2z"/>
	<path class="st0" d="M402.5,355.6v21.4H369v81.3h-22.2v-81.3h-33.7v-21.4H402.5z"/>
</g>
</svg>
