<?xml version="1.0" encoding="utf-8"?>
<!-- Generator: Adobe Illustrator 22.0.1, SVG Export Plug-In . SVG Version: 6.00 Build 0)  -->
<svg version="1.1" id="Capa_1" xmlns="http://www.w3.org/2000/svg" xmlns:xlink="http://www.w3.org/1999/xlink" x="0px" y="0px"
	 viewBox="0 0 485.7 485.7" style="enable-background:new 0 0 485.7 485.7;" xml:space="preserve">
<style type="text/css">
	.st0{fill:#F0C18D;}
</style>
<g>
	<g>
		<g>
			<g>
				<path class="st0" d="M301.7,308.4h-17.5v-9.5c0-8-6.5-14.5-14.5-14.5h-17.5v-75.3l1.4-0.1c56.4-4.3,98.7-53.7,94.3-110.1
					c-4.3-56.3-53.7-98.7-110.1-94.3c-56.4,4.3-98.7,53.7-94.3,110.1c3.9,50.7,43.6,90.4,94.3,94.3l1.4,0.1v75.3h-25.5
					c-1.7,0-3.4,0.7-4.6,1.9l-68.9,68.9v-8.3c0-3.6-2.9-6.5-6.5-6.5h-17.5v-9.5c0-3.6-2.9-6.5-6.5-6.5H92.2v-19.3l1.4-0.1
					c20.9-2.1,39.7-12.2,52.9-28.4c13.3-16.2,19.4-36.7,17.3-57.5c-2.1-20.9-12.2-39.7-28.4-52.9c-16.2-13.3-36.7-19.4-57.5-17.3
					C57,151,38.2,161.1,25,177.3C11.7,193.5,5.6,214,7.7,234.8c3.7,37,33.3,66.5,70.3,70.3l1.3,0.1v19.3H45.7
					c-1.7,0-3.4,0.7-4.6,1.9l-39,38.8l9.2,9.2l37-37h54.8v35h-19v-16h-13v67.8L41,454.3c-1.2,1.2-1.9,2.9-1.9,4.6v16
					c0,3.6,2.9,6.5,6.5,6.5h128c1.7,0,3.4-0.7,4.6-1.9l30.1-30.1h93.3c12.4,0,22.5-10.1,22.5-22.5v-96
					C324.2,318.5,314.1,308.4,301.7,308.4z M20.2,226.9c0-18.1,7.3-34.4,19.2-46.3s28.2-19.2,46.3-19.2c36.1,0,65.5,29.4,65.5,65.5
					s-29.4,65.5-65.5,65.5C49.6,292.3,20.2,263,20.2,226.9z M156.2,106.9c0-24.7,10-47.1,26.2-63.3s38.6-26.2,63.3-26.2
					c49.4,0,89.5,40.1,89.5,89.5c0,49.3-40.1,89.5-89.5,89.5C196.4,196.3,156.2,156.2,156.2,106.9z M116.2,353.4h11v14.8l-11,11
					V353.4z M84.2,385.4H110l-25.8,25.8V385.4z M171,468.4H52.2v-6.8l81.5-81.5l62.8,62.8L171,468.4z M239.2,436.4h-30.8l-65.5-65.5
					l73.5-73.5h54.8v75h-19v-32h-13L239.2,436.4L239.2,436.4z M311.2,426.9c0,5.2-4.3,9.5-9.5,9.5h-49.5v-19h59V426.9z M311.2,404.4
					h-59v-19h59V404.4z M311.2,372.4h-27v-19h27V372.4z M311.2,340.4h-27v-19h17.5c5.2,0,9.5,4.3,9.5,9.5V340.4z"/>
			</g>
			<g>
				<path class="st0" d="M297.2,64.5l-78.9,78.9c-2.5,2.5-6.7,2.5-9.2,0l-30.9-30.9l9.2-9.2l26.3,26.3L288,55.3L297.2,64.5z"/>
			</g>
			<g>
				<path class="st0" d="M437.7,332.4h-25.5v-19.3l1.3-0.1c40.2-4.1,70.6-37.7,70.7-78.1c0-43.3-35.2-78.5-78.5-78.5
					c-10.5,0-20.7,2-30.1,5.9s-18,9.6-25.4,17c-14.8,14.8-23,34.5-23,55.5c0,40.5,30.4,74.1,70.7,78.1l1.3,0.1v19.3h-1.5
					c-8,0-14.5,6.5-14.5,14.5v9.5h-17.5c-12.4,0-22.5,10.1-22.5,22.5v102.5h13v-16h59v16h13v-109h-13v16h-19v-43H435l37,37l9.2-9.2
					l-38.9-38.9C441,333.1,439.4,332.4,437.7,332.4z M356.2,378.9c0-5.2,4.3-9.5,9.5-9.5h17.5v19h-27V378.9z M415.2,452.4h-59v-19
					h59V452.4z M415.2,401.4v19h-59v-19H415.2z M340.2,234.9c0-18.1,7.3-34.4,19.2-46.3s28.2-19.2,46.3-19.2
					c36.1,0,65.5,29.4,65.5,65.5s-29.4,65.5-65.5,65.5C369.6,300.3,340.2,271,340.2,234.9z"/>
			</g>
			<g>
				<path class="st0" d="M445.2,204.5l-58.9,58.9c-2.5,2.5-6.7,2.5-9.2,0l-22.9-22.9l9.2-9.2l18.3,18.3l54.3-54.3L445.2,204.5z"/>
			</g>
			<g>
				<path class="st0" d="M125.2,196.5l-58.9,58.9c-2.5,2.5-6.7,2.5-9.2,0l-22.9-22.9l9.2-9.2l18.3,18.3l54.3-54.3L125.2,196.5z"/>
			</g>
		</g>
	</g>
</g>
</svg>
