<?xml version="1.0" encoding="utf-8"?>
<!-- Generator: Adobe Illustrator 22.0.1, SVG Export Plug-In . SVG Version: 6.00 Build 0)  -->
<svg version="1.1" id="Слой_1" xmlns="http://www.w3.org/2000/svg" xmlns:xlink="http://www.w3.org/1999/xlink" x="0px" y="0px"
	 viewBox="0 0 423.3 423.3" style="enable-background:new 0 0 423.3 423.3;" xml:space="preserve">
<style type="text/css">
	.st0{fill:#F0C18D;}
</style>
<g>
	<path class="st0" d="M288.8,51.8c0,4.8-1.4,6.7-3.6,9.9c-1.2,1.7-2.6,3.7-3.8,6.2c-1.8,3.7-0.1,8.2,3.6,10c1,0.5,2.1,0.7,3.2,0.7
		c2.8,0,5.5-1.6,6.8-4.3c0.6-1.3,1.5-2.5,2.5-4c2.7-3.8,6.4-9.1,6.4-18.6s-3.7-14.7-6.4-18.6c-2.3-3.2-3.6-5.2-3.6-9.9
		c0-4.8,1.4-6.7,3.6-9.9c0.4-0.5,0.8-1.1,1.1-1.7c2.3-3.4,1.4-8.1-2-10.4s-8.1-1.4-10.4,2c-0.3,0.5-0.7,1-1,1.4
		c-2.7,3.8-6.4,9.1-6.4,18.6c0,9.5,3.7,14.7,6.4,18.6C287.4,45.1,288.8,47,288.8,51.8L288.8,51.8z"/>
	<path class="st0" d="M196.6,51.8c0,4.8-1.4,6.7-3.6,9.9c-1.2,1.7-2.6,3.7-3.8,6.2c-1.8,3.7-0.1,8.2,3.6,10c1,0.5,2.1,0.7,3.2,0.7
		c2.8,0,5.5-1.6,6.8-4.3c0.6-1.3,1.5-2.5,2.5-4c2.7-3.8,6.4-9.1,6.4-18.6s-3.7-14.7-6.4-18.6c-2.3-3.2-3.6-5.2-3.6-9.9
		c0-4.8,1.4-6.7,3.6-9.9c0.4-0.5,0.8-1.1,1.1-1.7c2.3-3.4,1.4-8.1-2-10.4c-3.4-2.3-8.1-1.4-10.4,2c-0.3,0.5-0.7,1-1,1.4
		c-2.7,3.8-6.4,9.1-6.4,18.6c0,9.5,3.7,14.7,6.4,18.6C195.3,45.1,196.6,47,196.6,51.8L196.6,51.8z"/>
	<path class="st0" d="M104.5,51.8c0,4.8-1.4,6.7-3.6,9.9c-1.2,1.7-2.6,3.7-3.8,6.2c-1.8,3.7-0.1,8.2,3.6,10c1,0.5,2.1,0.7,3.2,0.7
		c2.8,0,5.5-1.6,6.8-4.3c0.6-1.3,1.5-2.5,2.5-4c2.7-3.8,6.4-9.1,6.4-18.6s-3.7-14.7-6.4-18.6c-2.3-3.2-3.6-5.2-3.6-9.9
		s1.4-6.7,3.6-9.9c0.4-0.5,0.8-1.1,1.1-1.7c2.3-3.4,1.4-8.1-2-10.4c-3.4-2.3-8.1-1.4-10.4,2c-0.3,0.5-0.7,0.9-1,1.4
		c-2.7,3.8-6.4,9.1-6.4,18.6s3.7,14.7,6.4,18.6C103.1,45.1,104.5,47,104.5,51.8z"/>
	<path class="st0" d="M351.1,112.8c-8.4,0-15.6,5.2-18.5,12.5h-12c-4.1,0-7.5,3.4-7.5,7.5s3.4,7.5,7.5,7.5h12
		c3,7.3,10.2,12.5,18.5,12.5c11,0,20-9,20-20S362.2,112.8,351.1,112.8L351.1,112.8z M351.1,137.8c-2.8,0-5-2.2-5-5s2.2-5,5-5
		s5,2.2,5,5S353.9,137.8,351.1,137.8z"/>
	<path class="st0" d="M346.1,384.7v-12c0-4.1-3.4-7.5-7.5-7.5s-7.5,3.4-7.5,7.5v12c-7.3,3-12.5,10.2-12.5,18.5c0,11,9,20,20,20
		s20-9,20-20C358.6,394.9,353.4,387.7,346.1,384.7L346.1,384.7z M338.6,408.3c-2.8,0-5-2.2-5-5s2.2-5,5-5s5,2.2,5,5
		S341.4,408.3,338.6,408.3z"/>
	<path class="st0" d="M253.2,140.3h36.1c4.1,0,7.5-3.4,7.5-7.5s-3.4-7.5-7.5-7.5h-36.1c-4.1,0-7.5,3.4-7.5,7.5
		S249.1,140.3,253.2,140.3z"/>
	<path class="st0" d="M181.6,254.3h-36.1c-4.1,0-7.5,3.4-7.5,7.5s3.4,7.5,7.5,7.5h36.1c4.1,0,7.5-3.4,7.5-7.5
		S185.8,254.3,181.6,254.3L181.6,254.3z"/>
	<path class="st0" d="M188.9,197.3c0,4.1,3.4,7.5,7.5,7.5h36.1c4.1,0,7.5-3.4,7.5-7.5s-3.4-7.5-7.5-7.5h-36.1
		C192.3,189.8,188.9,193.1,188.9,197.3z"/>
	<path class="st0" d="M248.9,254.3h-36.1c-4.1,0-7.5,3.4-7.5,7.5s3.4,7.5,7.5,7.5h36.1c4.1,0,7.5-3.4,7.5-7.5S253,254.3,248.9,254.3
		L248.9,254.3z"/>
	<path class="st0" d="M334.9,246.4c0.8,0.2,1.5,0.4,2.3,0.4c3.2,0,6.1-2,7.1-5.2c1.2-3.9,1.8-7.9,1.8-12c0-10.9-4.5-21.4-12.4-28.9
		c-3-2.8-7.8-2.7-10.6,0.3s-2.7,7.8,0.3,10.6c5,4.7,7.7,11.1,7.7,18c0,2.6-0.4,5.1-1.1,7.5C328.7,240.9,330.9,245.2,334.9,246.4
		L334.9,246.4z"/>
	<path class="st0" d="M263.6,189.8c-4.1,0-7.5,3.4-7.5,7.5s3.4,7.5,7.5,7.5h36.1c4.1,0,7.5-3.4,7.5-7.5s-3.4-7.5-7.5-7.5H263.6z"/>
	<path class="st0" d="M313.7,253.2c-2.4,0.7-4.8,1.1-7.3,1.1H280c-4.1,0-7.5,3.4-7.5,7.5s3.4,7.5,7.5,7.5h26.4c4,0,8-0.6,11.8-1.8
		c4-1.2,6.2-5.4,4.9-9.4C321.9,254.2,317.7,252,313.7,253.2z"/>
	<path class="st0" d="M327.8,346.2c1.4,2.4,3.9,3.8,6.5,3.8c1.3,0,2.6-0.3,3.7-1c3.6-2.1,4.8-6.7,2.7-10.2
		c-7.1-12.3-20.3-19.9-34.4-19.9h-2.3c-4.1,0-7.5,3.4-7.5,7.5s3.4,7.5,7.5,7.5h2.3C315.2,333.8,323.4,338.5,327.8,346.2L327.8,346.2
		z"/>
	<path class="st0" d="M111.3,132.8c0,4.1,3.4,7.5,7.5,7.5h36.1c4.1,0,7.5-3.4,7.5-7.5s-3.4-7.5-7.5-7.5h-36.1
		C114.6,125.3,111.3,128.6,111.3,132.8z"/>
	<path class="st0" d="M121.9,261.8c0-4.1-3.4-7.5-7.5-7.5H91.9c-5.7,0-11.1,1.2-16.2,3.5c-3.8,1.7-5.5,6.1-3.8,9.9
		c1.2,2.8,4,4.4,6.8,4.4c1,0,2.1-0.2,3.1-0.7c3.2-1.4,6.6-2.1,10.1-2.1h22.5C118.6,269.3,121.9,265.9,121.9,261.8z"/>
	<path class="st0" d="M77.2,313.9c-6.4-4.7-10-12-10-19.9c0-1.5,0.1-3.1,0.4-4.6c0.8-4.1-1.9-8-6-8.8c-4.1-0.8-8,1.9-8.8,6
		c-0.5,2.4-0.7,4.9-0.7,7.3c0,12.5,6,24.5,16.1,31.9c1.3,1,2.9,1.5,4.5,1.5c2.3,0,4.6-1,6-3C81.2,321.1,80.5,316.4,77.2,313.9z"/>
	<path class="st0" d="M58.9,162c0.8,0.3,1.6,0.4,2.4,0.4c3.1,0,6.1-2,7.1-5.1c3-9,10.9-15.5,20.3-16.7c4.1-0.5,7-4.3,6.5-8.4
		c-0.5-4.1-4.3-7-8.4-6.5c-15,2-27.8,12.5-32.6,26.9C52.9,156.4,55,160.7,58.9,162z"/>
	<path class="st0" d="M138.5,318.8h-36.1c-4.1,0-7.5,3.4-7.5,7.5s3.4,7.5,7.5,7.5h36.1c4.1,0,7.5-3.4,7.5-7.5
		S142.7,318.8,138.5,318.8z"/>
	<path class="st0" d="M205.8,318.8h-36.1c-4.1,0-7.5,3.4-7.5,7.5s3.4,7.5,7.5,7.5h36.1c4.1,0,7.5-3.4,7.5-7.5
		S209.9,318.8,205.8,318.8z"/>
	<path class="st0" d="M186,140.3h36.1c4.1,0,7.5-3.4,7.5-7.5s-3.4-7.5-7.5-7.5H186c-4.1,0-7.5,3.4-7.5,7.5S181.8,140.3,186,140.3z"
		/>
	<path class="st0" d="M121.7,197.3c0,4.1,3.4,7.5,7.5,7.5h36.1c4.1,0,7.5-3.4,7.5-7.5s-3.4-7.5-7.5-7.5h-36.1
		C125,189.8,121.7,193.1,121.7,197.3z"/>
	<path class="st0" d="M98.1,189.8h-6.2c-7.9,0-15.1-3.6-19.8-9.9c-2.5-3.3-7.2-4-10.5-1.5c-3.3,2.5-4,7.2-1.5,10.5
		c7.6,10.1,19.2,15.9,31.8,15.9h6.2c4.1,0,7.5-3.4,7.5-7.5S102.2,189.8,98.1,189.8z"/>
	<path class="st0" d="M273,318.8h-36.1c-4.1,0-7.5,3.4-7.5,7.5s3.4,7.5,7.5,7.5H273c4.1,0,7.5-3.4,7.5-7.5S277.1,318.8,273,318.8z"
		/>
</g>
</svg>
