<?xml version="1.0" encoding="utf-8"?>
<!-- Generator: Adobe Illustrator 22.0.1, SVG Export Plug-In . SVG Version: 6.00 Build 0)  -->
<svg version="1.1" id="Capa_1" xmlns="http://www.w3.org/2000/svg" xmlns:xlink="http://www.w3.org/1999/xlink" x="0px" y="0px"
	 viewBox="0 0 512 512" style="enable-background:new 0 0 512 512;" xml:space="preserve">
<style type="text/css">
	.st0{fill:#F0C18D;}
</style>
<g>
	<g>
		<g>
			<path class="st0" d="M259.2,215.4c-11.8,0-21.5,9.6-21.5,21.5c0,11.8,9.6,21.5,21.5,21.5c11.8,0,21.5-9.6,21.5-21.5
				C280.6,225,271,215.4,259.2,215.4z M259.2,244.4c-4.1,0-7.5-3.3-7.5-7.5c0-4.1,3.4-7.5,7.5-7.5s7.5,3.3,7.5,7.5
				C266.6,241,263.3,244.4,259.2,244.4z"/>
		</g>
	</g>
</g>
<g>
	<g>
		<g>
			<path class="st0" d="M213.9,160.1c-12.8,0-23.3,10.4-23.3,23.3c0,12.8,10.4,23.3,23.3,23.3c12.8,0,23.3-10.5,23.3-23.3
				C237.2,170.5,226.7,160.1,213.9,160.1z M213.9,192.7c-5.1,0-9.3-4.2-9.3-9.3s4.2-9.3,9.3-9.3s9.3,4.2,9.3,9.3
				S219,192.7,213.9,192.7z"/>
		</g>
	</g>
</g>
<g>
	<g>
		<g>
			<path class="st0" d="M438.1,423.1H418c-3.9,0-7,3.1-7,7s3.1,7,7,7h18.1v5.4H229.6v-5.4h76.9c6.6,0,12-5.4,12-12v-56.2h28.6v56.2
				c0,6.6,5.4,12,12,12H383c3.9,0,7-3.1,7-7s-3.1-7-7-7h-21.8v-56.2c0-4.1-2.1-7.9-5.6-10.1l-0.2-0.1V242c0-3.9-3.1-7-7-7
				s-7,3.1-7,7v112.9h-17V108.5h17V208c0,3.9,3.1,7,7,7s7-3.1,7-7V17.8c0-4.6-1.8-9-5.1-12.3c-3.3-3.3-7.6-5.1-12.3-5.1h-10.3
				c-9.6,0-17.3,7.8-17.3,17.3v338.8l-0.2,0.1c-3.5,2.2-5.6,6-5.6,10.1v56.2h-29.9l0.4-6.9l0.4-0.1c13.1-2.2,22.6-13.4,22.6-26.6
				v-52.1l0.2-0.2c3.8-3.3,6-8,6-12.9V322c0-9.4-7.6-17-17-17h-11.4v-0.5c-1-14.9-13.4-26.6-28.4-26.6c-1.9,0-3.9,0.2-5.8,0.6
				l-0.4,0.1l-0.1-0.4c-4.5-13.7-17.3-22.9-31.7-22.9c-0.4,0-0.8,0-1.1,0h-0.3l-0.2-0.2c-5.5-7.6-14.3-12.1-23.6-12.1
				c-10.2,0-19.8,5.5-25,14.3l-0.2,0.3l-0.3-0.1c-1.7-0.3-3.4-0.4-5.1-0.4c-11,0-21.1,6.1-26.3,15.8l-0.1,0.2l-0.2,0.1
				c-16.4,3-30.1,15.4-34.9,31.5l-0.1,0.4H78.9c-9.4,0-17,7.6-17,17v2.1c0,5,2.2,9.8,6.1,13l0.2,0.2v0.3c-0.1,0.4-0.1,0.8-0.1,1.3
				v50.4c0,13.3,9.5,24.5,22.6,26.6l0.4,0.1v0.4l5.2,81.6c0.5,7.4,6.7,13.2,14.1,13.2h327.7c6.6,0,12-5.4,12-12v-64.4
				C450.1,428.5,444.7,423.1,438.1,423.1z M324.3,17.8c0-1.8,1.5-3.3,3.3-3.3H338c1.8,0,3.3,1.5,3.3,3.3v76.7h-17V17.8z M284,389.6
				c0,5-2.8,9.4-7.3,11.6l-0.8,0.4l3.8-60.1h4.3V389.6z M107.2,304.6c4.8-10.1,14.5-16.9,25.5-17.8c1.4-0.1,2.7-0.6,3.8-1.5
				c1.1-0.8,1.9-2,2.3-3.3c2.1-6.4,8.1-10.7,14.8-10.7c2.3,0,4.4,0.5,6.5,1.4c1.9,0.8,4,0.8,5.9,0c1.9-0.9,3.2-2.5,3.8-4.5
				c1.8-6.5,7.8-11,14.5-11c5.8,0,11.2,3.4,13.6,8.7c1.4,2.9,4.5,4.5,7.7,3.9c1.3-0.3,2.5-0.4,3.8-0.4c10.6,0,19.2,8.6,19.3,19.2
				c0,2.6,1.4,4.9,3.7,6.1s5,1.1,7.1-0.3c2.3-1.5,5-2.3,7.8-2.3c7.2,0,13.3,5.4,14.3,12.5l0.1,0.6H106.9L107.2,304.6z M89.3,401.2
				c-4.5-2.2-7.3-6.7-7.3-11.6v-48.1h4.3l3.8,60.1L89.3,401.2z M100.3,341.4H216c3.9,0,7-3.1,7-7s-3.1-7-7-7H78.9c-1.6,0-3-1.4-3-3
				v-2.1c0-1.6,1.4-3,3-3h208.2c1.6,0,3,1.4,3,3v2.1c0,1.6-1.4,3-3,3H251c-3.9,0-7,3.1-7,7s3.1,7,7,7h14.7l-3.9,61.1h-31.4l-0.1-0.4
				c-1.8-7.8-8.6-13.2-16.5-13.2h-61.6c-7.9,0-14.8,5.4-16.5,13.2l-0.1,0.4h-31.4L100.3,341.4z M216.9,406v3.8c0,1.6-1.4,3-3,3
				h-61.6c-1.6,0-3-1.4-3-3V406c0-1.6,1.4-3,3-3h61.6C215.5,403,216.9,404.4,216.9,406z M215.6,497.5H110.2l-0.5-8.7h106
				L215.6,497.5L215.6,497.5z M218.8,427c-2.1,2.2-3.2,5.1-3.2,8.1v39.7H108.8l-3.7-58.2h31.6l0.1,0.3c2.8,6,8.8,9.9,15.4,9.9h61.6
				c1.5,0,3-0.2,4.5-0.6l1.7-0.5L218.8,427z M225.6,423.3l-1.7,0.3l1.3-1.2c1.8-1.6,3.2-3.5,4.1-5.6l0.1-0.3H261l-0.4,6.5h-32.9
				C227,423.1,226.3,423.2,225.6,423.3z M436.1,497.5H229.6v-41H436v41H436.1z"/>
		</g>
	</g>
</g>
<g>
	<g>
		<g>
			<path class="st0" d="M220.6,291.3c-0.5,1.8-1.6,3.3-3.2,4.3c-1.6,1-3.5,1.2-5.3,0.8c-1.8-0.5-3.3-1.6-4.3-3.2
				c-1.7-2.9-4.7-4.6-8-4.6s-6.3,1.7-8,4.6c-1.3,2.1-3.6,3.4-6,3.4c-1.3,0-2.5-0.3-3.5-1c-3.3-2-4.4-6.3-2.5-9.6
				c4.2-7.1,11.8-11.5,20-11.5s15.9,4.4,20,11.5C220.8,287.6,221.1,289.5,220.6,291.3z"/>
		</g>
	</g>
</g>
<g>
	<g>
		<g>
			<path class="st0" d="M168.7,299.7c-1.6,0.9-3.5,1.2-5.3,0.8c-1.8-0.5-3.3-1.6-4.3-3.2c-0.9-1.5-2.4-2.3-4.1-2.3s-3.2,0.9-4,2.3
				c-1.3,2.1-3.6,3.4-6,3.4c-1.2,0-2.5-0.3-3.6-1c-3.3-2-4.4-6.3-2.5-9.6c3.4-5.7,9.5-9.2,16.1-9.2c3.3,0,6.5,0.9,9.3,2.5
				s5.2,3.9,6.8,6.7C173.1,293.5,172,297.8,168.7,299.7z"/>
		</g>
	</g>
</g>
</svg>
