<?xml version="1.0" encoding="utf-8"?>
<!-- Generator: Adobe Illustrator 22.0.1, SVG Export Plug-In . SVG Version: 6.00 Build 0)  -->
<svg version="1.1" id="Слой_1" xmlns="http://www.w3.org/2000/svg" xmlns:xlink="http://www.w3.org/1999/xlink" x="0px" y="0px"
	 viewBox="0 0 300.4 180.4" style="enable-background:new 0 0 300.4 180.4;" xml:space="preserve">
<style type="text/css">
	.st0{fill:#FFFFFF;}
</style>
<g id="Layer_x0020_1">
	<polygon class="st0" points="9.1,133.1 2.7,133.1 2.7,128.5 21.3,128.5 21.3,133.1 15,133.1 15,149.2 9.1,149.2 	"/>
	<polygon id="_x31_" class="st0" points="41.2,144.7 41.2,149.2 24.5,149.2 24.5,128.5 40.8,128.5 40.8,133 30.4,133 30.4,136.5 
		39.6,136.5 39.6,140.9 30.4,140.9 30.4,144.7 	"/>
	<polygon id="_x31_2" class="st0" points="49.9,133.1 43.6,133.1 43.6,128.5 62.1,128.5 62.1,133.1 55.8,133.1 55.8,149.2 
		49.9,149.2 	"/>
	<polygon id="_x31_23" class="st0" points="85.1,128.5 85.1,149.2 79.2,149.2 79.2,141.1 71.3,141.1 71.3,149.2 65.4,149.2 
		65.4,128.5 71.3,128.5 71.3,136.2 79.2,136.2 79.2,128.5 	"/>
	<polygon id="_x31_234" class="st0" points="101.4,141.8 101.4,149.2 95.6,149.2 95.6,141.7 87.7,128.5 93.8,128.5 98.8,136.7 
		103.7,128.5 109.4,128.5 	"/>
	<path id="_x31_2345" class="st0" d="M119.2,149.6c-1.7,0-3.3-0.2-4.9-0.6c-1.6-0.4-2.9-1-3.9-1.7l1.9-4.3c0.9,0.6,2,1.1,3.2,1.5
		c1.2,0.4,2.4,0.6,3.6,0.6c2.3,0,3.4-0.6,3.4-1.7c0-0.6-0.3-1-1-1.3c-0.6-0.3-1.7-0.6-3.1-0.9c-1.6-0.3-2.9-0.7-3.9-1.1
		c-1-0.4-1.9-1-2.7-1.9c-0.8-0.8-1.1-2-1.1-3.4c0-1.3,0.3-2.4,1-3.4c0.7-1,1.7-1.8,3.1-2.4c1.4-0.6,3.1-0.9,5.1-0.9
		c1.4,0,2.7,0.2,4,0.5c1.3,0.3,2.5,0.8,3.5,1.3l-1.8,4.4c-2-1.1-3.9-1.6-5.7-1.6c-1.2,0-2,0.2-2.5,0.5s-0.8,0.8-0.8,1.3
		c0,0.6,0.3,1,0.9,1.2c0.6,0.3,1.6,0.6,3.1,0.9c1.6,0.3,2.9,0.7,3.9,1.1c1,0.4,1.9,1,2.7,1.8c0.8,0.8,1.1,2,1.1,3.4
		c0,1.2-0.3,2.4-1,3.4c-0.7,1-1.7,1.8-3.1,2.4C122.9,149.3,121.2,149.6,119.2,149.6L119.2,149.6z"/>
	<path id="_x31_23456" class="st0" d="M150.2,128.5c1.9,0,3.5,0.3,4.9,0.9s2.4,1.5,3.2,2.7c0.8,1.2,1.1,2.5,1.1,4.1
		c0,1.6-0.4,2.9-1.1,4.1c-0.8,1.1-1.8,2-3.2,2.7c-1.4,0.6-3,0.9-4.9,0.9h-3.6v5.4h-5.9v-20.7H150.2z M149.9,139.2
		c1.2,0,2.1-0.3,2.7-0.8c0.6-0.5,0.9-1.3,0.9-2.2c0-1-0.3-1.7-0.9-2.3c-0.6-0.5-1.5-0.8-2.7-0.8h-3.3v6.1H149.9z"/>
	<path id="_x31_234567" class="st0" d="M177.5,145.2h-8.8l-1.6,4h-6l9.2-20.7h5.8l9.2,20.7h-6.1L177.5,145.2L177.5,145.2z
		 M175.8,140.8l-2.7-6.6l-2.7,6.6H175.8L175.8,140.8z"/>
	<path id="_x31_2345678" class="st0" d="M197.1,143.7h-3.2v5.5H188v-20.7h9.5c1.9,0,3.5,0.3,4.9,0.9s2.4,1.5,3.2,2.7
		c0.8,1.2,1.1,2.5,1.1,4.1c0,1.5-0.4,2.8-1.1,3.9c-0.7,1.1-1.7,2-3,2.6l4.5,6.5h-6.3L197.1,143.7z M200.8,136.1c0-1-0.3-1.7-0.9-2.3
		c-0.6-0.5-1.5-0.8-2.7-0.8h-3.3v6.1h3.3c1.2,0,2.1-0.3,2.7-0.8C200.5,137.8,200.8,137.1,200.8,136.1z"/>
	<path id="_x31_23456789" class="st0" d="M234,151.6c-0.7,0.8-1.5,1.5-2.5,1.9c-1,0.4-2.1,0.7-3.3,0.7c-1.1,0-2.2-0.1-3.1-0.4
		c-0.9-0.3-1.9-0.8-2.8-1.5c-0.9-0.7-2-1.6-3.2-2.9c-1.8-0.3-3.4-0.9-4.8-1.9c-1.4-1-2.5-2.2-3.3-3.7s-1.2-3.1-1.2-4.9
		c0-2.1,0.5-3.9,1.5-5.5c1-1.6,2.4-2.9,4.1-3.9c1.7-0.9,3.7-1.4,5.9-1.4c2.2,0,4.2,0.5,5.9,1.4c1.7,0.9,3.1,2.2,4.1,3.9
		c1,1.6,1.5,3.5,1.5,5.5c0,2.3-0.6,4.4-1.9,6.2c-1.3,1.8-3,3.1-5.1,3.8c0.4,0.4,0.8,0.7,1.2,0.9c0.4,0.2,0.8,0.3,1.3,0.3
		c1.2,0,2.2-0.5,3.1-1.5L234,151.6L234,151.6z M215.8,138.8c0,1.2,0.2,2.2,0.7,3.1c0.5,0.9,1.2,1.6,2,2.1c0.8,0.5,1.8,0.7,2.8,0.7
		s2-0.2,2.8-0.7c0.8-0.5,1.5-1.2,2-2.1c0.5-0.9,0.7-1.9,0.7-3.1c0-1.2-0.2-2.2-0.7-3.1c-0.5-0.9-1.2-1.6-2-2.1
		c-0.8-0.5-1.8-0.7-2.8-0.7s-2,0.2-2.8,0.7c-0.8,0.5-1.5,1.2-2,2.1C216.1,136.6,215.8,137.7,215.8,138.8z"/>
	<path id="_x31_2345678910" class="st0" d="M246.7,149.6c-3.1,0-5.5-0.8-7.2-2.5c-1.7-1.7-2.6-4.1-2.6-7.1v-11.5h5.9v11.3
		c0,3.3,1.3,5,3.9,5c2.6,0,3.9-1.7,3.9-5v-11.3h5.8v11.5c0,3.1-0.9,5.5-2.6,7.1C252.1,148.8,249.7,149.6,246.7,149.6z"/>
	<polygon id="_x31_234567891011" class="st0" points="278.1,144.7 278.1,149.2 261.4,149.2 261.4,128.5 277.7,128.5 277.7,133 
		267.2,133 267.2,136.5 276.5,136.5 276.5,140.9 267.2,140.9 267.2,144.7 	"/>
	<polygon id="_x31_23456789101112" class="st0" points="286.8,133.1 280.5,133.1 280.5,128.5 299,128.5 299,133.1 292.7,133.1 
		292.7,149.2 286.8,149.2 	"/>
	<path class="st0" d="M108,173.1c0,0.9-0.3,1.6-1,2.1c-0.6,0.5-1.5,0.8-2.5,0.8c-0.7,0-1.4-0.1-2.1-0.4c-0.7-0.2-1.4-0.6-2-1l1-1.5
		c1.1,0.8,2.2,1.2,3.2,1.2c0.4,0,0.8-0.1,1.1-0.3c0.3-0.2,0.4-0.5,0.4-0.8c0-0.5-0.6-0.9-1.9-1.3c-0.1,0-0.2-0.1-0.2-0.1
		c-2-0.5-2.9-1.4-2.9-2.7c0-0.9,0.3-1.6,1-2.1c0.7-0.5,1.6-0.8,2.6-0.8c1.1,0,2.1,0.3,3.1,1l-0.7,1.5c-0.8-0.5-1.6-0.8-2.5-0.8
		c-0.5,0-0.9,0.1-1.2,0.3c-0.3,0.2-0.4,0.4-0.4,0.8c0,0.3,0.2,0.5,0.5,0.7c0.2,0.1,0.5,0.2,0.9,0.3c0.4,0.1,0.7,0.2,1,0.3
		c0.3,0.1,0.6,0.2,0.9,0.3c0.3,0.1,0.6,0.3,0.9,0.5C107.7,171.5,108,172.2,108,173.1L108,173.1z"/>
	<path id="_x31__1_" class="st0" d="M113.8,175.9h-2v-9.4h2V175.9z M111.9,164.6c-0.2-0.2-0.4-0.5-0.4-0.9c0-0.3,0.1-0.6,0.4-0.9
		c0.2-0.2,0.5-0.4,0.9-0.4c0.3,0,0.6,0.1,0.9,0.4c0.2,0.2,0.4,0.5,0.4,0.9c0,0.3-0.1,0.6-0.4,0.9c-0.2,0.2-0.5,0.4-0.9,0.4
		C112.5,165,112.2,164.8,111.9,164.6z"/>
	<path id="_x31_2_1_" class="st0" d="M120.2,170.8v5.1h-2v-9.4h2v1.7c0.3-0.6,0.8-1,1.3-1.4s1.2-0.5,1.8-0.5c1.1,0,1.9,0.3,2.6,1
		c0.7,0.6,1,1.6,1,2.8v5.8h-2v-5.2c0-1.7-0.7-2.6-2.2-2.6c-0.7,0-1.3,0.2-1.8,0.7S120.2,169.9,120.2,170.8L120.2,170.8z"/>
	<path id="_x31_23_1_" class="st0" d="M135.4,176c-1.3,0-2.4-0.4-3.4-1.3c-0.9-0.9-1.4-2.1-1.4-3.5s0.5-2.6,1.5-3.5
		c1-0.9,2.2-1.4,3.6-1.4c1.4,0,2.6,0.5,3.6,1.5l-1.2,1.4c-0.8-0.7-1.6-1.1-2.5-1.1c-0.8,0-1.5,0.3-2.1,0.8c-0.6,0.5-0.9,1.3-0.9,2.1
		c0,0.9,0.3,1.6,0.9,2.2c0.6,0.6,1.3,0.9,2.2,0.9c0.9,0,1.7-0.4,2.5-1.2l1.2,1.3C138.2,175.4,136.9,176,135.4,176L135.4,176z"/>
	<path id="_x31_234_1_" class="st0" d="M151.7,172h-7.4c0,0.7,0.4,1.2,0.9,1.7c0.6,0.4,1.2,0.6,2,0.6c1.2,0,2.1-0.4,2.7-1.1l1.1,1.2
		c-1,1-2.3,1.6-4,1.6c-1.3,0-2.4-0.4-3.4-1.3c-0.9-0.9-1.4-2.1-1.4-3.5c0-1.5,0.5-2.7,1.4-3.5c0.9-0.9,2.1-1.3,3.3-1.3
		s2.4,0.4,3.3,1.2c0.9,0.8,1.3,1.8,1.3,3.2L151.7,172L151.7,172z M144.4,170.5h5.4c0-0.8-0.2-1.4-0.7-1.8c-0.5-0.4-1.1-0.6-1.8-0.6
		s-1.4,0.2-2,0.7S144.4,169.7,144.4,170.5L144.4,170.5z"/>
	<polygon id="_x31_2345_1_" class="st0" points="159.4,163.5 163.9,163.5 163.9,175.9 161.9,175.9 161.9,165.4 159.4,165.4 	"/>
	<path id="_x31_23456_1_" class="st0" d="M171.9,174.1c1.1,0,1.9-0.4,2.4-1.1c0.5-0.7,0.8-1.7,0.8-3c-0.3,0.3-0.7,0.6-1.3,0.9
		c-0.6,0.3-1.2,0.4-1.8,0.4c-1.1,0-2-0.4-2.8-1.1c-0.7-0.7-1.1-1.7-1.1-2.9c0-1.2,0.4-2.2,1.2-2.9c0.8-0.7,1.8-1.1,3.1-1.1
		c2,0,3.3,0.9,4.1,2.7c0.4,1,0.6,2.2,0.6,3.4c0,1.3-0.1,2.3-0.4,3.2c-0.3,0.8-0.6,1.5-1.1,2c-0.9,1-2,1.5-3.4,1.5
		c-1.3,0-2.6-0.4-3.6-1.3l1-1.5c0.3,0.2,0.6,0.4,1.1,0.6C171.1,174,171.5,174.1,171.9,174.1L171.9,174.1z M172.3,169.5
		c0.7,0,1.3-0.2,1.8-0.6c0.5-0.4,0.7-0.9,0.7-1.5s-0.2-1.2-0.7-1.6c-0.5-0.5-1-0.7-1.7-0.7c-0.7,0-1.3,0.2-1.7,0.6
		c-0.4,0.4-0.7,0.9-0.7,1.6c0,0.6,0.2,1.2,0.6,1.6C171,169.3,171.6,169.5,172.3,169.5L172.3,169.5z"/>
	<path id="_x31_234567_1_" class="st0" d="M186,165.1c-1.1,0-1.9,0.4-2.4,1.1c-0.5,0.7-0.8,1.7-0.8,3c0.3-0.3,0.7-0.6,1.3-0.9
		c0.6-0.3,1.2-0.4,1.8-0.4c1.1,0,2,0.4,2.8,1.1c0.7,0.7,1.1,1.7,1.1,2.9s-0.4,2.2-1.2,2.9c-0.8,0.7-1.8,1.1-3.1,1.1
		c-2,0-3.3-0.9-4.1-2.7c-0.4-1-0.6-2.2-0.6-3.4c0-1.3,0.1-2.3,0.4-3.2c0.3-0.8,0.6-1.5,1.1-2c0.9-1,2-1.5,3.4-1.5
		c1.3,0,2.6,0.4,3.6,1.3l-1,1.5c-0.3-0.2-0.6-0.4-1.1-0.6C186.7,165.2,186.3,165.1,186,165.1L186,165.1z M185.6,169.7
		c-0.7,0-1.3,0.2-1.8,0.6c-0.5,0.4-0.7,0.9-0.7,1.5c0,0.6,0.2,1.2,0.7,1.6c0.5,0.5,1,0.7,1.7,0.7c0.7,0,1.3-0.2,1.7-0.6
		c0.5-0.4,0.7-0.9,0.7-1.6c0-0.6-0.2-1.2-0.6-1.6C186.9,170,186.3,169.7,185.6,169.7L185.6,169.7z"/>
	<polygon id="_x31_2345678_1_" class="st0" points="193.1,167.1 193.1,163.5 201.8,163.5 201.8,165.4 196.5,175.9 194.2,175.9 
		199.3,165.4 195,165.4 195,167.1 	"/>
	<path class="st0" d="M196.6,77.6l1.2,1.2l-18-7.4l-4.1-4.2l-9.6-6.3l-10.6-12.4l7.8,0.4l9.2,4.4l9.6,14.6L196.6,77.6z M249.8,74.9
		c-5.5-4.7-9.8-11.2-9.8-11.2l-4.7-6.4l-4.8-7.6l-9.9-3.2l-11-16.4l-6.5,9.7l-7.3,2.2l-13.3,19.5l-13.2-24.9c0,0-13.3-8.2-15.4-10.1
		c-2.2-1.9-11.5-22-11.5-22l-18,19.5l1.1,5.8l-5.9,1.9l-13.3,22.4c0,0-8.2,3-9.8,4c-1.1,0.6-8.5,9.5-13.7,16.1c0,0,0,0,0.1-0.1
		l-3.5-2.5l-11.4-11L55.3,74.8l-10,1.5L21.9,99.7l19.6-14l0.2,5.3l9.2-5.3l1.5,7.2L62.6,82l8.2,0.3l-2.3-6.1l0.4-7l11.2,8.7
		c-1,1.4-1.8,2.5-2.1,3.1c-1.8,3.3-28.4,22.9-28.4,22.9l14-7.3l15,3.2L90,83l19.4-4.6l11.7,5L142,96.9l-16.3-20l-6.4-3.5l-6.7-3.9
		l-12.4-7.3l7.7-2.8l14.3-23.2l7.4-3.9l0.1-2.4L140,18.3c1.3,2.3,3.1,4.5,5.1,6.6l0.8,8.7l-10.3,1l-16.3,17.2l12.7,0.7l5.9,9l11,6.4
		l11.3,6.2l12.1,4l7.8,5.8l8.9,9l-2.2-10.8l3.9,5.1l2.2,9.5l3.2,8.9l-0.1-7.8l-0.4-6.1l9-0.7l22.2,18.8L203,81l-7-8.5l-11.6-7.4
		l-1.7-3.2L195.1,50c-0.6,2.5-2.2,6-6.1,8.8l7.5-3.8l4.6-10.2l2.7,0.1l7.2-5l4.3,7.4l-9.9,14l4.9-3.8l4.2-0.5l12.2,3.8l-1.6,11.6
		l2.5,8l0.3-5l3.2-4.5l6.8,0.2l2.7,19.5l4.2-13.7l2.9,4.2L248,79l12.2,6.1l19.5,6C279.7,91,255.3,79.5,249.8,74.9L249.8,74.9z"/>
</g>
</svg>
