<?xml version="1.0" encoding="utf-8"?>
<!-- Generator: Adobe Illustrator 22.0.1, SVG Export Plug-In . SVG Version: 6.00 Build 0)  -->
<svg version="1.1" id="Capa_1" xmlns="http://www.w3.org/2000/svg" xmlns:xlink="http://www.w3.org/1999/xlink" x="0px" y="0px"
	 viewBox="0 0 198 198" style="enable-background:new 0 0 198 198;" xml:space="preserve">
<style type="text/css">
	.st0{fill:#F0C18D;}
</style>
<g>
	<g>
		<polygon class="st0" points="136.2,8.5 136.2,41.5 143,41.5 143,15.4 166.8,15.4 166.8,52.9 173.6,52.9 173.6,8.5 		"/>
	</g>
</g>
<g>
	<g>
		<polygon class="st0" points="166.8,69.1 166.8,182.6 30.6,182.6 30.6,67.7 23.8,67.7 23.8,189.4 173.6,189.4 173.6,69.1 		"/>
	</g>
</g>
<g>
	<g>
		<path class="st0" d="M133.3,97.6c-8.8-9-33.6-29.6-74.6-25.9c-0.9,0.1-1.8,0.6-2.4,1.3c-0.6,0.8-0.8,1.7-0.7,2.7
			c0.4,2.5,10.4,60.3,24.1,74.4c7,7.2,16.3,11.2,26.3,11.3c0.1,0,0.3,0,0.4,0c9.8,0,19.1-3.8,26.1-10.7
			C147.5,136.2,147.7,112.4,133.3,97.6z M128,145.7c-5.8,5.6-13.3,8.7-21.4,8.7c-0.1,0-0.2,0-0.4,0c-8.2-0.1-15.8-3.4-21.5-9.2
			c-9.5-9.7-18.2-48.7-21.6-67c35.8-1.9,57.5,16.1,65.4,24.1C140.2,114.4,140,133.9,128,145.7z"/>
	</g>
</g>
<g>
	<g>
		<path class="st0" d="M133,168.8c-2.7-6.7-4.7-14.5-6.6-22.1c-2-7.8-4-16-6.9-22.9c-9.3-22.4-38.9-38-40.2-38.7
			c-1.7-0.9-3.7-0.2-4.6,1.5s-0.2,3.7,1.5,4.6c0.3,0.1,28.7,15.1,37,35.2c2.7,6.5,4.6,14,6.6,22c2,7.8,4,15.8,6.8,23
			c0.5,1.3,1.8,2.1,3.2,2.1c0.4,0,0.9-0.1,1.3-0.2C132.9,172.5,133.8,170.5,133,168.8z"/>
	</g>
</g>
<g>
	<g>
		<path class="st0" d="M131.5,119.9c-1.6-1-3.7-0.5-4.7,1.1l-7.7,12.7l-30-3.5c-1.9-0.2-3.6,1.1-3.8,3c-0.2,1.9,1.1,3.6,3,3.8
			l32.2,3.8c0.1,0,0.3,0,0.4,0c1.2,0,2.3-0.6,2.9-1.6l8.9-14.6C133.6,122.9,133.1,120.8,131.5,119.9z"/>
	</g>
</g>
<g>
	<g>
		<path class="st0" d="M109,93.5c-1.8-0.5-3.7,0.5-4.2,2.3l-2.6,8.8l-17.8-0.4c-1.9-0.1-3.4,1.4-3.5,3.3c0,1.9,1.4,3.4,3.3,3.5
			l20.4,0.5c0,0,0.1,0,0.1,0c1.5,0,2.8-1,3.3-2.4l3.3-11.3C111.9,95.9,110.9,94,109,93.5z"/>
	</g>
</g>
<g>
	<g>
		<path class="st0" d="M122.4,104.5c-1.7-0.7-3.7,0.1-4.5,1.8l-5.2,12.5l-23.5-3.7c-1.8-0.3-3.6,1-3.9,2.8c-0.3,1.9,1,3.6,2.8,3.9
			l26.2,4.2c0.2,0,0.4,0,0.5,0c1.4,0,2.6-0.8,3.1-2.1l6.2-15C124.9,107.2,124.1,105.2,122.4,104.5z"/>
	</g>
</g>
<g>
	<g>
		<path class="st0" d="M191.1,56.9l-89-30.7c-2.1-0.7-4.5-0.7-6.7,0L6.9,56.9c-2.6,0.9-4.7,2.7-5.8,5.2s-1.4,5.2-0.5,7.8
			c1.4,4.1,5.3,6.9,9.6,6.9c1.1,0,2.3-0.2,3.3-0.6l85.2-29.6l85.7,29.6c5.3,1.8,11.1-1,13-6.4C199.2,64.6,196.4,58.7,191.1,56.9z
			 M191,67.7c-0.6,1.8-2.6,2.7-4.3,2.1L98.7,39.5L11.3,69.8c-1.8,0.6-3.7-0.4-4.3-2.1c-0.3-0.9-0.2-1.8,0.2-2.6
			c0.4-0.8,1.1-1.4,1.9-1.7l88.5-30.7c0.4-0.1,0.7-0.2,1.1-0.2c0.4,0,0.7,0.1,1.1,0.2l89,30.7C190.6,63.9,191.6,65.9,191,67.7z"/>
	</g>
</g>
</svg>
