<?xml version="1.0" encoding="utf-8"?>
<!-- Generator: Adobe Illustrator 22.0.1, SVG Export Plug-In . SVG Version: 6.00 Build 0)  -->
<svg version="1.1" id="Capa_1" xmlns="http://www.w3.org/2000/svg" xmlns:xlink="http://www.w3.org/1999/xlink" x="0px" y="0px"
	 viewBox="0 0 512 512" style="enable-background:new 0 0 512 512;" xml:space="preserve">
<style type="text/css">
	.st0{fill:#F0C18D;stroke:#F0C18D;stroke-miterlimit:10;}
</style>
<g>
	<path class="st0" d="M506.6,99.2l-55.1-54.7c-1.2-1.2-2.9-1.9-4.6-1.9h-41.2V20c0-3.6-2.9-6.5-6.5-6.5h-46c-3.6,0-6.5,2.9-6.5,6.5
		v22.6h-96.3c-3.6,0-6.5,2.9-6.5,6.5v109.5c0,3.6,2.9,6.5,6.5,6.5h84.8v40l-5.6-4.4c-8.5-6.6-18.5-10-29.2-10
		c-7.6,0-14.8,3-20.1,8.4c-5.4,5.4-8.4,12.5-8.4,20.1v43.7c0,3,0.1,5.5,0.1,7.8v0.2c0.2,10.1,0.3,12.2-4.9,18.3l-0.2,0.3l-0.3,0.2
		L236,313.1c-7.9,6.1-14.4,14-18.7,23l-1,2h-17.2l-0.4-3.1c-0.4-3.3-3.2-5.7-6.4-5.7h-37.2v-3.5c0-3.6-2.9-6.5-6.5-6.5H10
		c-3.6,0-6.5,2.9-6.5,6.5v146.3c0,3.6,2.9,6.5,6.5,6.5h138.7c3.6,0,6.5-2.9,6.5-6.4v-3.5h37.2c2.9,0,5.5-2,6.3-4.8l0.7-2.6H214
		l0.9,2.2c8.7,21.3,29.1,35,52.1,35h149.8c0.6,0,1.2,0,1.7,0c17.1-0.9,30.9-14.8,31.3-31.6c0.3-9.2-3.4-18.1-10-24.5l-2.6-2.5
		l2.6-2.5c0.2-0.2,0.3-0.3,0.5-0.5c6.1-6.2,9.5-14.3,9.5-23c0-8.8-3.7-17.4-10.1-23.5l-2.6-2.5l2.6-2.5c6.4-6.1,10.1-14.7,10.1-23.5
		c0-8.9-3.8-17.6-10.4-23.8l-2.7-2.5l2.7-2.6c6.3-6,9.9-14,10.2-22.5c0.5-17.1-12.4-31.7-29.4-33.3l-3.2-0.3V165.1h85
		c3.6,0,6.5-2.9,6.5-6.5v-54.7C508.5,102.1,507.8,100.4,506.6,99.2z M119.7,465.6c-12.4,0-22.5-10.1-22.5-22.5s10.1-22.5,22.5-22.5
		s22.5,10.1,22.5,22.5S132.1,465.6,119.7,465.6z M142.2,360.5H75.7c-3.6,0-6.5,2.9-6.5,6.5s2.9,6.5,6.5,6.5h66.5V415l-5.2-2.9
		c-5.3-3-11.3-4.5-17.3-4.5c-19.6,0-35.5,15.9-35.5,35.5c0,6,1.6,12,4.5,17.3l2.9,5.2H16.5V332.3h125.7V360.5z M185.9,455.7h-30.7
		v-82.2h30.7V455.7z M185.9,360.5h-30.7v-18.3h30.7V360.5z M359.7,26.5h33v16.1h-33V26.5z M417.9,290v3.5V290
		c10.8,0.4,19.2,9.4,18.9,20.1c-0.2,5-2.3,9.7-5.7,13.1c-3.4,3.4-8.1,5.6-13.3,5.9c-0.3,0-0.6,0-0.9,0h-0.2h-35.5
		c-3.6,0-6.5,2.9-6.5,6.5s2.9,6.5,6.5,6.5h36.4l0.3,0.1c0.3,0.1,0.6,0.1,1,0.1c10.1,0.8,18,9.3,18,19.5c0,10.1-7.8,18.6-17.9,19.4
		h-0.3h-39.1c-3.6,0-6.5,2.9-6.5,6.5s2.9,6.5,6.5,6.5h38.2h0.3c0.2,0,0.5,0.1,0.7,0.1c10.1,0.7,18,9.3,18,19.5
		c0,5.2-2,10.1-5.7,13.8c-3.3,3.3-7.7,5.3-12.3,5.7l-0.8,0.1h-37c-3.6,0-6.5,2.9-6.5,6.5s2.9,6.5,6.5,6.5h37.2l0.6,0.1
		c10.4,0.8,18.3,9.5,18,20c-0.3,10.1-8.6,18.4-19,19c-0.4,0-0.7,0-1.1,0H267c-19.7,0-36.9-13.3-41.9-32.3c-0.8-2.9-3.3-4.9-6.3-4.9
		h-20V351h21.9c2.7,0,5.2-1.7,6.1-4.3c3.4-9.3,9.3-17.4,17.1-23.4l31.4-24.2c0.3-0.3,0.7-0.6,1-0.9c8.8-10.2,9-15.6,8.7-27.9
		c-0.1-2.1-0.1-4.6-0.1-7.6V219c0-4.1,1.6-8,4.5-11c2.9-2.9,6.8-4.5,11-4.5c19,0,34.7,15.5,34.8,34.6v45.4c0,1.7,0.7,3.4,1.9,4.6
		c1.2,1.2,2.9,1.9,4.6,1.9l72.8-0.1c0.1,0,0.2,0,0.3,0h3.1V290z M348.2,277.2V165.1h56v112L348.2,277.2z M495.5,152.1H256.9v-32
		h162.9c3.6,0,6.5-2.9,6.5-6.5s-2.9-6.5-6.5-6.5H256.9V55.6h187.3l51.3,50.9V152.1z"/>
	<path class="st0" d="M448.8,116.1c0.1,0.4,0.4,0.8,0.6,1.1c0.2,0.4,0.5,0.7,0.8,1s0.6,0.6,1,0.8c0.4,0.3,0.7,0.5,1.1,0.6
		c0.4,0.2,0.8,0.3,1.2,0.4c0.8,0.2,1.7,0.2,2.5,0c0.4-0.1,0.8-0.2,1.2-0.4c0.4-0.2,0.8-0.4,1.1-0.6c0.4-0.3,0.7-0.5,1-0.8
		s0.6-0.6,0.8-1c0.3-0.4,0.5-0.8,0.6-1.2c0.2-0.4,0.3-0.8,0.4-1.2c0.1-0.4,0.1-0.8,0.1-1.3c0-0.4,0-0.8-0.1-1.3
		c-0.1-0.4-0.2-0.8-0.4-1.2c-0.2-0.4-0.4-0.8-0.6-1.1c-0.2-0.4-0.5-0.7-0.8-1s-0.6-0.6-1-0.8c-0.4-0.3-0.8-0.4-1.1-0.6
		c-0.4-0.2-0.8-0.3-1.2-0.4c-0.4-0.1-0.8-0.1-1.3-0.1c-0.4,0-0.9,0-1.3,0.1s-0.8,0.2-1.2,0.4c-0.4,0.2-0.8,0.4-1.1,0.6
		c-0.4,0.2-0.7,0.5-1,0.8s-0.6,0.6-0.8,1c-0.2,0.3-0.4,0.7-0.6,1.1s-0.3,0.8-0.4,1.2c-0.1,0.4-0.1,0.8-0.1,1.3s0,0.9,0.1,1.3
		C448.5,115.3,448.7,115.7,448.8,116.1z"/>
	<path class="st0" d="M37.1,372.4c0.4,0.3,0.8,0.4,1.1,0.6c0.4,0.2,0.8,0.3,1.2,0.4s0.8,0.1,1.3,0.1c1.7,0,3.4-0.7,4.6-1.9
		c1.2-1.2,1.9-2.9,1.9-4.6c0-0.4,0-0.9-0.1-1.3s-0.2-0.8-0.4-1.2c-0.2-0.4-0.4-0.8-0.6-1.1c-0.2-0.3-0.5-0.7-0.8-1
		c-1.2-1.2-2.9-1.9-4.6-1.9c-0.4,0-0.8,0-1.2,0.1s-0.8,0.2-1.2,0.4c-0.4,0.2-0.8,0.4-1.1,0.6c-0.4,0.2-0.7,0.5-1,0.8s-0.6,0.6-0.8,1
		c-0.3,0.4-0.5,0.8-0.6,1.1c-0.2,0.4-0.3,0.8-0.4,1.2c-0.1,0.4-0.1,0.8-0.1,1.3c0,1.7,0.7,3.4,1.9,4.6
		C36.4,371.9,36.8,372.2,37.1,372.4z"/>
</g>
</svg>
