<?xml version="1.0" encoding="utf-8"?>
<!-- Generator: Adobe Illustrator 22.0.1, SVG Export Plug-In . SVG Version: 6.00 Build 0)  -->
<svg version="1.1" id="Слой_1" xmlns="http://www.w3.org/2000/svg" xmlns:xlink="http://www.w3.org/1999/xlink" x="0px" y="0px"
	 viewBox="0 0 325.3 192.9" style="enable-background:new 0 0 325.3 192.9;" xml:space="preserve">
<style type="text/css">
	.st0{fill:#FFFFFF;}
</style>
<g id="Layer_x0020_1">
	<polygon class="st0" points="14.8,141.1 8.2,141.1 8.2,136.2 27.5,136.2 27.5,141.1 20.9,141.1 20.9,157.8 14.8,157.8 	"/>
	<polygon id="_x31_" class="st0" points="48.2,153.1 48.2,157.8 30.9,157.8 30.9,136.2 47.8,136.2 47.8,141 36.9,141 36.9,144.6 
		46.5,144.6 46.5,149.2 36.9,149.2 36.9,153.1 	"/>
	<polygon id="_x31_2" class="st0" points="57.3,141.1 50.7,141.1 50.7,136.2 70,136.2 70,141.1 63.4,141.1 63.4,157.8 57.3,157.8 	
		"/>
	<polygon id="_x31_23" class="st0" points="93.9,136.2 93.9,157.8 87.8,157.8 87.8,149.4 79.5,149.4 79.5,157.8 73.4,157.8 
		73.4,136.2 79.5,136.2 79.5,144.3 87.8,144.3 87.8,136.2 	"/>
	<polygon id="_x31_234" class="st0" points="110.9,150.1 110.9,157.8 104.8,157.8 104.8,150 96.6,136.2 103,136.2 108.2,144.8 
		113.3,136.2 119.2,136.2 	"/>
	<path id="_x31_2345" class="st0" d="M129.4,158.3c-1.7,0-3.4-0.2-5.1-0.6c-1.6-0.4-3-1-4-1.7l2-4.5c1,0.6,2.1,1.2,3.4,1.5
		c1.3,0.4,2.5,0.6,3.8,0.6c2.3,0,3.5-0.6,3.5-1.8c0-0.6-0.3-1.1-1-1.4c-0.7-0.3-1.7-0.6-3.2-0.9c-1.6-0.3-3-0.7-4.1-1.1
		c-1.1-0.4-2-1-2.8-1.9s-1.2-2.1-1.2-3.6c0-1.3,0.4-2.5,1.1-3.6s1.8-1.9,3.2-2.5c1.4-0.6,3.2-0.9,5.3-0.9c1.4,0,2.8,0.2,4.2,0.5
		s2.6,0.8,3.6,1.4l-1.9,4.5c-2.1-1.1-4.1-1.7-6-1.7c-1.2,0-2.1,0.2-2.7,0.5c-0.6,0.4-0.8,0.8-0.8,1.4c0,0.6,0.3,1,1,1.3
		s1.7,0.6,3.2,0.9c1.6,0.3,3,0.7,4.1,1.1c1.1,0.4,2,1,2.8,1.9s1.2,2.1,1.2,3.6c0,1.3-0.4,2.5-1.1,3.5c-0.7,1-1.8,1.9-3.2,2.5
		C133.2,157.9,131.5,158.3,129.4,158.3L129.4,158.3z"/>
	<path id="_x31_23456" class="st0" d="M161.7,136.2c2,0,3.6,0.3,5.1,1c1.4,0.6,2.5,1.6,3.3,2.8s1.2,2.6,1.2,4.2c0,1.6-0.4,3-1.2,4.2
		s-1.9,2.1-3.3,2.8c-1.4,0.6-3.1,1-5.1,1H158v5.6h-6.1v-21.6H161.7z M161.4,147.4c1.3,0,2.2-0.3,2.8-0.8s1-1.3,1-2.3s-0.3-1.8-1-2.3
		c-0.6-0.6-1.6-0.8-2.8-0.8H158v6.3L161.4,147.4L161.4,147.4z"/>
	<path id="_x31_234567" class="st0" d="M190.2,153.6H181l-1.7,4.2h-6.2l9.5-21.6h6l9.6,21.6h-6.4L190.2,153.6L190.2,153.6z
		 M188.4,149.1l-2.8-6.9l-2.8,6.9H188.4L188.4,149.1z"/>
	<path id="_x31_2345678" class="st0" d="M210.5,152.1h-3.3v5.7h-6.1v-21.6h9.9c2,0,3.6,0.3,5.1,1s2.5,1.6,3.3,2.8s1.2,2.6,1.2,4.2
		c0,1.6-0.4,2.9-1.1,4.1c-0.7,1.2-1.8,2.1-3.1,2.7l4.7,6.8h-6.5L210.5,152.1z M214.4,144.2c0-1-0.3-1.8-1-2.3
		c-0.6-0.6-1.6-0.8-2.8-0.8h-3.4v6.3h3.4c1.3,0,2.2-0.3,2.8-0.8C214,146,214.4,145.2,214.4,144.2z"/>
	<path id="_x31_23456789" class="st0" d="M249,160.3c-0.7,0.9-1.6,1.6-2.6,2c-1,0.5-2.2,0.7-3.4,0.7s-2.3-0.2-3.2-0.5
		c-1-0.3-1.9-0.8-2.9-1.5s-2.1-1.7-3.3-3c-1.9-0.3-3.5-1-5-2s-2.6-2.3-3.4-3.9c-0.8-1.6-1.2-3.3-1.2-5.2c0-2.1,0.5-4.1,1.6-5.8
		c1-1.7,2.5-3,4.3-4s3.9-1.4,6.2-1.4s4.3,0.5,6.2,1.4c1.8,1,3.2,2.3,4.3,4c1,1.7,1.6,3.6,1.6,5.8c0,2.4-0.7,4.6-2,6.4
		c-1.3,1.9-3.1,3.2-5.4,4c0.4,0.5,0.8,0.8,1.2,1s0.8,0.3,1.3,0.3c1.2,0,2.3-0.5,3.3-1.5L249,160.3L249,160.3z M230,147
		c0,1.2,0.3,2.3,0.8,3.2s1.2,1.7,2.1,2.2c0.9,0.5,1.9,0.8,3,0.8s2.1-0.3,3-0.8s1.6-1.2,2.1-2.2c0.5-0.9,0.8-2,0.8-3.2
		s-0.3-2.3-0.8-3.2s-1.2-1.7-2.1-2.2c-0.9-0.5-1.9-0.8-3-0.8s-2.1,0.3-3,0.8s-1.6,1.2-2.1,2.2C230.3,144.7,230,145.8,230,147z"/>
	<path id="_x31_2345678910" class="st0" d="M262.1,158.3c-3.2,0-5.7-0.9-7.5-2.6c-1.8-1.7-2.7-4.2-2.7-7.4v-12h6.1V148
		c0,3.5,1.4,5.2,4.1,5.2s4.1-1.7,4.1-5.2v-11.8h6v12c0,3.2-0.9,5.7-2.7,7.4C267.8,157.4,265.3,158.3,262.1,158.3z"/>
	<polygon id="_x31_234567891011" class="st0" points="294.9,153.1 294.9,157.8 277.5,157.8 277.5,136.2 294.5,136.2 294.5,141 
		283.6,141 283.6,144.6 293.2,144.6 293.2,149.2 283.6,149.2 283.6,153.1 	"/>
	<polygon id="_x31_23456789101112" class="st0" points="303.9,141.1 297.3,141.1 297.3,136.2 316.7,136.2 316.7,141.1 310.1,141.1 
		310.1,157.8 303.9,157.8 	"/>
	<path class="st0" d="M117.8,182.7c0,0.9-0.3,1.7-1,2.2c-0.7,0.6-1.5,0.8-2.6,0.8c-0.7,0-1.5-0.1-2.2-0.4c-0.8-0.3-1.4-0.6-2-1.1
		l1-1.6c1.1,0.9,2.2,1.3,3.3,1.3c0.5,0,0.8-0.1,1.1-0.3c0.3-0.2,0.4-0.5,0.4-0.8c0-0.5-0.7-0.9-2-1.3c-0.1,0-0.2-0.1-0.2-0.1
		c-2-0.6-3.1-1.5-3.1-2.8c0-0.9,0.4-1.6,1.1-2.2c0.7-0.5,1.6-0.8,2.8-0.8c1.1,0,2.2,0.3,3.2,1l-0.8,1.5c-0.8-0.5-1.7-0.8-2.6-0.8
		c-0.5,0-0.9,0.1-1.2,0.3c-0.3,0.2-0.5,0.4-0.5,0.8c0,0.3,0.2,0.6,0.5,0.7c0.2,0.1,0.5,0.2,0.9,0.3s0.8,0.2,1.1,0.3
		c0.3,0.1,0.6,0.2,0.9,0.3s0.6,0.3,0.9,0.5C117.4,181,117.8,181.7,117.8,182.7L117.8,182.7z"/>
	<path id="_x31__1_" class="st0" d="M123.8,185.6h-2.1v-9.8h2.1V185.6z M121.9,173.8c-0.3-0.3-0.4-0.6-0.4-0.9
		c0-0.4,0.1-0.7,0.4-0.9c0.3-0.3,0.6-0.4,0.9-0.4c0.4,0,0.7,0.1,0.9,0.4c0.3,0.3,0.4,0.6,0.4,0.9c0,0.4-0.1,0.7-0.4,0.9
		c-0.3,0.3-0.6,0.4-0.9,0.4C122.4,174.2,122.1,174.1,121.9,173.8z"/>
	<path id="_x31_2_1_" class="st0" d="M130.5,180.3v5.3h-2.1v-9.8h2.1v1.8c0.3-0.6,0.8-1.1,1.4-1.4s1.2-0.5,1.9-0.5
		c1.1,0,2,0.3,2.7,1s1,1.7,1,2.9v6h-2.1v-5.4c0-1.8-0.7-2.7-2.2-2.7c-0.7,0-1.3,0.2-1.9,0.7C130.7,178.7,130.5,179.4,130.5,180.3
		L130.5,180.3z"/>
	<path id="_x31_23_1_" class="st0" d="M146.3,185.7c-1.4,0-2.5-0.5-3.5-1.4s-1.5-2.1-1.5-3.6s0.5-2.7,1.5-3.7c1-0.9,2.3-1.4,3.7-1.4
		c1.5,0,2.7,0.5,3.7,1.5l-1.2,1.5c-0.8-0.7-1.7-1.1-2.6-1.1c-0.9,0-1.6,0.3-2.2,0.9c-0.6,0.6-0.9,1.3-0.9,2.2s0.3,1.7,0.9,2.3
		c0.6,0.6,1.4,0.9,2.3,0.9s1.8-0.4,2.6-1.3l1.2,1.3C149.2,185.1,147.9,185.7,146.3,185.7L146.3,185.7z"/>
	<path id="_x31_234_1_" class="st0" d="M163.3,181.6h-7.7c0,0.7,0.4,1.3,1,1.7s1.3,0.7,2.1,0.7c1.2,0,2.2-0.4,2.8-1.2l1.2,1.3
		c-1.1,1.1-2.4,1.6-4.1,1.6c-1.4,0-2.5-0.5-3.5-1.4s-1.4-2.1-1.4-3.7c0-1.5,0.5-2.8,1.5-3.7s2.1-1.4,3.5-1.4s2.5,0.4,3.4,1.2
		s1.4,1.9,1.4,3.3L163.3,181.6L163.3,181.6z M155.6,180h5.6c0-0.8-0.3-1.5-0.8-1.9s-1.2-0.7-1.9-0.7c-0.8,0-1.4,0.2-2,0.7
		C155.9,178.6,155.6,179.2,155.6,180L155.6,180z"/>
	<polygon id="_x31_2345_1_" class="st0" points="171.3,172.7 176,172.7 176,185.6 173.9,185.6 173.9,174.7 171.3,174.7 	"/>
	<path id="_x31_23456_1_" class="st0" d="M184.3,183.8c1.1,0,2-0.4,2.5-1.2s0.8-1.8,0.8-3.1c-0.3,0.3-0.7,0.7-1.3,1
		s-1.2,0.5-1.9,0.5c-1.2,0-2.1-0.4-2.9-1.2c-0.8-0.8-1.2-1.8-1.2-3.1s0.4-2.3,1.3-3.1c0.8-0.8,1.9-1.2,3.2-1.2
		c2.1,0,3.5,0.9,4.3,2.8c0.4,1.1,0.7,2.2,0.7,3.6s-0.1,2.4-0.4,3.3c-0.3,0.9-0.7,1.6-1.2,2.1c-1,1-2.1,1.5-3.5,1.5s-2.7-0.4-3.8-1.3
		l1.1-1.6c0.3,0.2,0.7,0.5,1.1,0.7C183.5,183.7,183.9,183.8,184.3,183.8L184.3,183.8z M184.7,179c0.7,0,1.4-0.2,1.9-0.6
		c0.5-0.4,0.7-0.9,0.7-1.6s-0.2-1.2-0.7-1.7s-1.1-0.7-1.8-0.7s-1.3,0.2-1.8,0.6c-0.5,0.4-0.7,1-0.7,1.6c0,0.7,0.2,1.2,0.6,1.7
		C183.4,178.8,184,179,184.7,179L184.7,179z"/>
	<path id="_x31_234567_1_" class="st0" d="M199,174.4c-1.1,0-2,0.4-2.5,1.2s-0.8,1.8-0.8,3.1c0.3-0.3,0.7-0.7,1.3-1s1.2-0.5,1.9-0.5
		c1.2,0,2.1,0.4,2.9,1.2c0.8,0.8,1.2,1.8,1.2,3.1s-0.4,2.3-1.3,3.1c-0.8,0.8-1.9,1.2-3.2,1.2c-2.1,0-3.5-0.9-4.3-2.8
		c-0.4-1.1-0.7-2.2-0.7-3.6c0-1.3,0.1-2.4,0.4-3.3c0.3-0.9,0.7-1.6,1.2-2.1c1-1,2.1-1.5,3.5-1.5s2.7,0.4,3.8,1.3l-1.1,1.6
		c-0.3-0.2-0.7-0.5-1.1-0.7C199.7,174.5,199.3,174.4,199,174.4L199,174.4z M198.6,179.2c-0.7,0-1.4,0.2-1.9,0.6
		c-0.5,0.4-0.7,0.9-0.7,1.6s0.2,1.2,0.7,1.7s1.1,0.7,1.8,0.7s1.3-0.2,1.8-0.6c0.5-0.4,0.7-1,0.7-1.6s-0.2-1.2-0.7-1.7
		C199.9,179.5,199.3,179.2,198.6,179.2L198.6,179.2z"/>
	<polygon id="_x31_2345678_1_" class="st0" points="206.3,176.4 206.3,172.7 215.4,172.7 215.4,174.7 209.9,185.6 207.6,185.6 
		212.9,174.7 208.3,174.7 208.3,176.4 	"/>
	<path class="st0" d="M210,83.3l1.3,1.3l-18.7-7.7l-4.3-4.4l-10-6.5l-11-12.9l8.1,0.5l9.6,4.5l10,15.2L210,83.3z M265.4,80.5
		c-5.7-4.8-10.2-11.6-10.2-11.6l-4.9-6.6l-5-7.9L235,51l-11.4-17l-6.7,10l-7.6,2.3l-13.8,20.3l-13.8-26c0,0-13.8-8.6-16.1-10.5
		c-2.2-1.9-11.9-22.9-11.9-22.9L135,27.5l1.1,6l-6.1,2l-13.8,23.3c0,0-8.5,3.1-10.2,4.1c-1.1,0.7-8.8,9.9-14.2,16.8c0,0,0,0,0.1-0.1
		L88.1,77L76.2,65.6L62.9,80.3l-10.4,1.6l-24.4,24.4l20.4-14.6l0.2,5.6l9.6-5.5l1.6,7.5L70.5,88l8.5,0.3l-2.4-6.4l0.4-7.3l11.6,9.1
		c-1.1,1.4-1.9,2.6-2.2,3.2c-1.9,3.4-29.6,23.8-29.6,23.8l14.6-7.6l15.6,3.3L98.9,89l20.2-4.8l12.2,5.2l21.7,14.1l-16.9-20.9
		l-6.7-3.6l-7-4l-13-7.5l8.1-3l14.9-24.2l7.7-4.1l0.1-2.5l10.7-12.1c1.3,2.4,3.2,4.7,5.3,6.8l0.9,9.1l-10.7,1l-16.9,17.9l13.2,0.7
		l6.2,9.4l11.4,6.6l11.8,6.5l12.6,4.1l8.2,6.1l9.3,9.4L199.9,88l4,5.3l2.3,9.9l3.3,9.2l-0.1-8.2l-0.4-6.4l9.3-0.7l23.1,19.6
		l-24.8-30l-7.2-8.8l-12.1-7.7l-1.8-3.3l12.9-12.4c-0.7,2.7-2.3,6.3-6.3,9.1l7.8-4l4.8-10.7l2.8,0.2l7.5-5.2l4.5,7.7l-10.3,14.5
		l5.1-4l4.4-0.5l12.7,3.9l-1.7,12.1l2.6,8.3l0.3-5.2l3.3-4.7l7.1,0.3l2.9,20.3l4.4-14.3l3,4.4l0.1-2l12.7,6.3l20.3,6.2
		C296.5,97.2,271.1,85.3,265.4,80.5L265.4,80.5z"/>
</g>
</svg>
