<?xml version="1.0" encoding="utf-8"?>
<!-- Generator: Adobe Illustrator 22.0.1, SVG Export Plug-In . SVG Version: 6.00 Build 0)  -->
<svg version="1.1" id="Capa_1" xmlns="http://www.w3.org/2000/svg" xmlns:xlink="http://www.w3.org/1999/xlink" x="0px" y="0px"
	 viewBox="0 0 512 512" style="enable-background:new 0 0 512 512;" xml:space="preserve">
<style type="text/css">
	.st0{fill:#F0C18D;}
</style>
<g>
	<g>
		<g>
			<circle class="st0" cx="156" cy="380" r="6"/>
		</g>
	</g>
</g>
<g>
	<g>
		<g>
			<path class="st0" d="M444.5,190l61.8-61.8c1.5-1.5,2.1-3.7,1.6-5.7s-2-3.7-4-4.3L358.3,73.4l-0.6-2C345.1,31.1,308.3,4,266,4
				c-39.4,0-74.3,23.6-89,60.1l-0.7,1.8l-168,52.4c-2,0.6-3.5,2.3-4,4.3s0.1,4.2,1.6,5.7L68.6,191l-39.8,66.3
				c-0.9,1.6-1.1,3.4-0.5,5.2c0.6,1.7,2,3,3.7,3.6l58,19.2V442c0,2.5,1.6,4.8,3.9,5.6l33.6,12.6c49.9,18.7,125.3,47,126.5,47.5
				c0.8,0.3,2.2,0.5,3.8,0h0.1l179.9-60c2.4-0.8,4.1-3.1,4.1-5.7V281.1l61.8-19.4c2-0.6,3.5-2.3,4-4.3s-0.1-4.2-1.6-5.7L444.5,190z
				 M362,100c0-2.3-0.1-4.8-0.3-7.3l-0.4-5.8l129.4,40l-56.3,56.3l-88.6-29.5l2.6-4.3C357.3,134.4,362,117.3,362,100z M186.5,72.7
				c5.8-17,16.7-31.1,30.7-41C231.1,21.7,248.1,16,266,16c38.6,0,72.2,26.1,81.5,63.6c1.7,6.6,2.5,13.5,2.5,20.4
				c0,19.5-6.5,37.8-18.7,52.9c-16,19.8-39.8,31.1-65.3,31.1c-27.5,0-53.3-13.5-69-36.1c-9.8-14.1-15-30.6-15-47.9
				C182,90.6,183.5,81.4,186.5,72.7z M21.3,126.8l150.7-47l-0.9,6.3c-0.7,4.7-1,9.4-1,13.9c0,15.5,3.6,30.3,10.6,43.9l2.1,4.1
				L77.6,183L21.3,126.8z M42.8,256.9l35.8-59.7L247,253.3L211.2,313L42.8,256.9z M250,493.3l-148-55.5V289.3l5.3,1.7
				c44.2,14.7,69.6,23.2,84.8,28.3c17.4,5.8,20.6,6.9,21.4,6.9h0.3c2.1,0,4.1-1.1,5.1-2.9l31-51.7L250,493.3L250,493.3z M256,243.7
				L95,190l94.8-31.6l1.7,2.1C209.8,183.1,237,196,266,196c26.9,0,51.8-10.8,70.2-30.5l1.8-1.9l79,26.4L256,243.7z M430,437.7
				l-168,56V267.1l42.6,53.2c1.5,1.9,4.1,2.7,6.5,2L430,284.9V437.7z M311.4,309.6L266.1,253l168.3-56.1l56.4,56.4L311.4,309.6z"/>
		</g>
	</g>
</g>
<g>
	<g>
		<g>
			<path class="st0" d="M221.6,403.7c-1.2,3.1-4.6,4.7-7.7,3.5l-22.2-8.3c-3.1-1.2-4.7-4.6-3.5-7.7c0.9-2.4,3.2-3.9,5.6-3.9
				c0.7,0,1.4,0.1,2.1,0.4l22.2,8.3C221.2,397.1,222.8,400.6,221.6,403.7z"/>
		</g>
	</g>
</g>
<g>
	<g>
		<g>
			<path class="st0" d="M221.6,446.4c-0.9,2.3-3.1,3.9-5.6,3.9c-0.7,0-1.4-0.1-2.1-0.4l-60-22.5c-1.5-0.6-2.7-1.7-3.4-3.1
				c-0.7-1.5-0.7-3.1-0.2-4.6c0.9-2.4,3.2-3.9,5.6-3.9c0.7,0,1.4,0.1,2.1,0.4l60,22.5c1.5,0.6,2.7,1.7,3.4,3.1
				C222.1,443.3,222.2,444.9,221.6,446.4z"/>
		</g>
	</g>
</g>
<g>
	<g>
		<g>
			<path class="st0" d="M320.2,74.2l-60,60c-2.3,2.3-6.1,2.3-8.5,0l-20-20c-1.1-1.1-1.8-2.6-1.8-4.2s0.6-3.1,1.8-4.3
				c1.2-1.2,2.7-1.8,4.3-1.8s3.1,0.6,4.2,1.8l15.8,15.8l55.8-55.8c1.1-1.1,2.6-1.8,4.2-1.8s3.1,0.6,4.2,1.8
				C322.6,68.1,322.6,71.9,320.2,74.2z"/>
		</g>
	</g>
</g>
</svg>
