<?xml version="1.0" encoding="utf-8"?>
<!-- Generator: Adobe Illustrator 22.0.1, SVG Export Plug-In . SVG Version: 6.00 Build 0)  -->
<svg version="1.1" id="Layer_1" xmlns="http://www.w3.org/2000/svg" xmlns:xlink="http://www.w3.org/1999/xlink" x="0px" y="0px"
	 viewBox="0 0 512 512" style="enable-background:new 0 0 512 512;" xml:space="preserve">
<style type="text/css">
	.st0{fill:#F0C18D;}
</style>
<g>
	<g>
		<path class="st0" d="M471.1,343.1h-36.8c-4.5,0-8.2,3.7-8.2,8.2s3.7,8.2,8.2,8.2H463v136.2h-69.7V379.8c0-4.5-3.7-8.2-8.2-8.2
			s-8.2,3.7-8.2,8.2v115.9h-69.7v-66.2c0-4.5-3.7-8.2-8.2-8.2s-8.2,3.7-8.2,8.2v66.2h-69.7v-16.5c0-4.5-3.7-8.2-8.2-8.2
			s-8.2,3.7-8.2,8.2v16.5h-44.1c4.1-5.5,6.9-12,7.8-19.1l293.1-169.2c9.4-5.4,16.2-14.3,19-24.8c2.8-10.6,1.4-21.6-4-31l-43.6-75.5
			c-5.4-9.4-14.3-16.2-24.8-19c-10.6-2.8-21.6-1.4-31,4l-31.8,18.4c-3.9,2.3-5.2,7.3-3,11.2c2.3,3.9,7.3,5.2,11.2,3l24.8-14.3
			l68.1,117.9L386,332.2l-58-100.4c-2.3-3.9-7.3-5.2-11.2-3c-3.9,2.3-5.2,7.3-3,11.2l57.9,100.4l-60.4,34.9L278.2,318
			c-2.3-3.9-7.3-5.2-11.2-3c-3.9,2.3-5.2,7.3-3,11.2l33.1,57.3l-60.4,34.9l-8.3-14.3c-2.3-3.9-7.3-5.2-11.2-3
			c-3.9,2.3-5.2,7.3-3,11.2l8.3,14.3l-53.9,31.1v-7.3l53-91.7l43-74.5l43-74.5l43-74.5c11.3-19.5,4.6-44.5-15-55.8l-75.5-43.6
			c-9.4-5.4-20.4-6.9-31-4c-10.6,2.8-19.4,9.6-24.8,19l-18.4,31.8c-2.3,3.9-0.9,8.9,3,11.2c3.9,2.3,8.9,0.9,11.2-3L214.4,66
			l117.9,68.1l-34.9,60.4L197,136.6c-3.9-2.3-8.9-0.9-11.2,3s-0.9,8.9,3,11.2l100.4,57.9l-34.9,60.4L197,236
			c-3.9-2.3-8.9-0.9-11.2,3s-0.9,8.9,3,11.2l57.3,33.1l-34.9,60.4l-14.3-8.3c-3.9-2.3-8.9-0.9-11.2,3s-0.9,8.9,3,11.2l14.3,8.3
			L168.3,418V40.9C168.9,18.3,150.5,0,128,0H40.9C18.3,0,0,18.3,0,40.9v430.3C0,493.7,18.3,512,40.9,512h430.3
			c22.5,0,40.9-18.3,40.9-40.9V384C512,361.5,493.7,343.1,471.1,343.1z M393.1,172.4c3.5-0.6,7.2-0.5,10.8,0.4
			c6.3,1.7,11.6,5.7,14.9,11.4l43.6,75.5c3.3,5.6,4.1,12.2,2.4,18.6c-1,3.6-2.7,6.8-5,9.6L393.1,172.4z M224.2,52.3
			c2.7-2.3,6-4.1,9.6-5c6.3-1.7,12.9-0.8,18.6,2.4l75.5,43.6c9.2,5.3,13.7,15.8,11.8,25.7L224.2,52.3z M152.5,471.1
			c0,13.5-11,24.5-24.5,24.5H40.9c-13.5,0-24.5-11-24.5-24.5V40.9c0-13.5,11-24.5,24.5-24.5H128c13.5,0,24.5,11,24.5,24.5V471.1z
			 M495.7,471.1c0,10.7-6.8,19.7-16.3,23.1V360.9c9.5,3.4,16.3,12.5,16.3,23.1V471.1z"/>
	</g>
</g>
<g>
	<g>
		<path class="st0" d="M84.4,397.6c-16.5,0-30,13.4-30,30s13.4,30,30,30s30-13.4,30-30C114.4,411.1,100.9,397.6,84.4,397.6z
			 M84.4,441.2c-7.5,0-13.6-6.1-13.6-13.6S76.9,414,84.4,414S98,420.1,98,427.6S91.9,441.2,84.4,441.2z"/>
	</g>
</g>
</svg>
