<?xml version="1.0" encoding="utf-8"?>
<!-- Generator: Adobe Illustrator 22.0.1, SVG Export Plug-In . SVG Version: 6.00 Build 0)  -->
<svg version="1.1" id="Capa_1" xmlns="http://www.w3.org/2000/svg" xmlns:xlink="http://www.w3.org/1999/xlink" x="0px" y="0px"
	 viewBox="0 0 512 512" style="enable-background:new 0 0 512 512;" xml:space="preserve">
<style type="text/css">
	.st0{fill:#F0C18D;}
</style>
<g>
	<g>
		<g>
			<path class="st0" d="M264,50c0,2.3-0.9,4.4-2.6,5.9s-3.9,2.3-6.2,2c-4.1-0.4-7.2-3.8-7.2-7.9c0-4.4,3.6-8,8-8S264,45.6,264,50z"
				/>
		</g>
	</g>
</g>
<g>
	<g>
		<g>
			<path class="st0" d="M456,62c-28.7,0-52-23.3-52-52c0-4.4-3.6-8-8-8H116c-4.4,0-8,3.6-8,8c0,28.7-23.3,52-52,52c-4.4,0-8,3.6-8,8
				v163.2c0,128.5,82.7,239.6,205.7,276.5c1.5,0.4,3.1,0.4,4.6,0c123-36.9,205.7-148,205.7-276.5V70C464,65.6,460.4,62,456,62z
				 M448,233.2c0,59-18.2,115-52.7,161.9c-34.5,46.8-82.4,80.9-138.7,98.4l-0.6,0.2l-0.6-0.2C199.6,476,151.7,442,117.1,394.9
				C82.3,347.8,64,291.8,64,233.2V77.6l1.7-0.3C95.4,73,119,49.4,123.3,19.7l0.2-1.7h264.9l0.2,1.7c4.3,29.7,27.9,53.3,57.6,57.6
				l1.7,0.3L448,233.2L448,233.2z"/>
		</g>
	</g>
</g>
<g>
	<g>
		<g>
			<path class="st0" d="M424,101.6v131.5c0,106.8-64.9,198.7-165.3,234.3c-1.7,0.6-3.6,0.6-5.3,0C152.9,431.9,88,340,88,233.2V101.6
				c0-3.2,1.9-6,4.8-7.3c21.3-9.3,38.2-26.2,47.5-47.5c1.3-2.9,4.1-4.8,7.3-4.8H216c4.4,0,8,3.6,8,8s-3.6,8-8,8h-63.3l-0.6,1.1
				c-10.4,20.4-26.7,36.7-47.1,47.1l-1.1,0.6v126.4c0,98.4,59.4,183.9,151.3,218l0.7,0.3l0.7-0.3c91.9-34,151.3-119.6,151.3-218
				V106.7l-1.1-0.6c-20.4-10.4-36.7-26.7-47.1-47.1l-0.6-1.1H296c-4.4,0-8-3.6-8-8s3.6-8,8-8h68.4c3.2,0,6.1,1.9,7.3,4.8
				C376.3,57.4,382.9,67,391,75s17.6,14.6,28.3,19.3C422.1,95.6,424,98.5,424,101.6z"/>
		</g>
	</g>
</g>
<g>
	<g>
		<g>
			<path class="st0" d="M256,148c-48.5,0-88,39.5-88,88s39.5,88,88,88s88-39.5,88-88S304.5,148,256,148z M256,308
				c-39.7,0-72-32.3-72-72s32.3-72,72-72s72,32.3,72,72S295.7,308,256,308z"/>
		</g>
	</g>
</g>
<g>
	<g>
		<g>
			<path class="st0" d="M301.7,221.7l-50,50c-1.5,1.5-3.5,2.3-5.7,2.3s-4.2-0.8-5.7-2.3l-20-20c-3.1-3.1-3.1-8.2,0-11.3
				c1.6-1.6,3.6-2.3,5.7-2.3s4.1,0.8,5.7,2.3l14.3,14.3l44.3-44.3c3.1-3.1,8.2-3.1,11.3,0C304.8,213.5,304.8,218.5,301.7,221.7z"/>
		</g>
	</g>
</g>
</svg>
