<?xml version="1.0" encoding="utf-8"?>
<!-- Generator: Adobe Illustrator 22.0.1, SVG Export Plug-In . SVG Version: 6.00 Build 0)  -->
<svg version="1.1" id="Layer_1" xmlns="http://www.w3.org/2000/svg" xmlns:xlink="http://www.w3.org/1999/xlink" x="0px" y="0px"
	 viewBox="0 0 512 512" style="enable-background:new 0 0 512 512;" xml:space="preserve">
<style type="text/css">
	.st0{fill:#F0C18D;}
</style>
<g>
	<g>
		<g>
			<path class="st0" d="M453.7,246.6c-1,2-3.1,3.3-5.4,3.3c-0.9,0-1.8-0.2-2.7-0.6c-12.1-6.1-36.9-7.4-45.4-7.4c-3.3,0-6-2.7-6-6
				s2.7-6,6-6c0.7,0,9.1,0,19.5,1.1s22.8,3.3,31.3,7.5C454,240.1,455.2,243.7,453.7,246.6z"/>
		</g>
	</g>
</g>
<g>
	<g>
		<g>
			<path class="st0" d="M488.7,345.5l-31-8.9c-2-0.6-3.3-2.4-3.3-4.5V321l0.6-0.5c2.5-1.7,4.9-3.7,7-5.7
				c10.6-10.3,16.4-24.1,16.4-38.8v-14.6l3.2-6.3c3.2-6.4,4.9-13.5,4.9-20.6v-38.7c0-3.3-2.7-6-6-6h-72.2
				c-25.4,0-46.1,20.7-46.1,46.1v0.5c0,5.9,1.4,11.8,4,17l4,8V274c0,18.3,8.8,35.5,23.4,46.1l0.6,0.4v11.6c0,2.9-1.2,3.8-7.3,5.6
				l-15.6,4.4L326,325.6l0.1-1.1c0.1-1.7-0.5-3.4-1.6-4.6l-14.4-15.1V279l0.5-0.5c1.7-1.4,3-2.6,4.3-3.7
				c17.3-16.2,27.3-39.2,27.3-62.9v-20l0.1-0.3c5.2-11.4,7.9-23.4,7.9-35.8V75.6c0-3.3-2.7-6-6-6H232c-38.7,0-70.2,31.5-70.2,70.1
				v16c0,12.4,2.7,24.4,7.9,35.8l0.1,0.3v17.3c0,26.7,11.5,51.8,31.5,68.8l0.5,0.5v26.5L187.6,320c-1.2,1.2-1.8,2.9-1.6,4.6l0.1,1.1
				l-47.2,17.2c-3.2,1.2-6.2,2.7-8.9,4.7l-0.7,0.5l-10.9-5.5l2.9-1.3c21.1-9.2,27.7-22,28-22.5c0.8-1.7,0.8-3.7,0-5.4
				c-5.5-11.1-6.2-31.1-6.7-47.2c-0.2-5.3-0.3-10.3-0.7-14.7c-2.5-35.2-29.2-61.7-62.1-61.7s-59.6,26.5-62.1,61.7
				c-0.3,4.4-0.5,9.4-0.6,14.7c-0.5,16.1-1.2,36.1-6.8,47.2c-0.8,1.7-0.8,3.7,0,5.4c0.3,0.5,6.9,13.3,28,22.5l2.9,1.3l-23,11.5
				C7.9,359.3,1.5,369.6,1.5,381v55.4c0,3.3,2.7,6,6,6s6-2.7,6-6V381c0-6.9,3.8-13.1,10-16.1l26-13l9.5,9c5.6,5.3,13,8.3,20.7,8.3
				s15.1-2.9,20.7-8.3l9.5-9l10.6,5.3l-0.9,1.4c-3.8,6.1-5.8,13-5.8,20.1v57.7c0,3.3,2.7,6,6,6s6-2.7,6-6v-57.7
				c0-10.9,6.9-20.8,17.2-24.5l49.8-18.1l20.9,31.4c2.3,3.5,6.1,5.8,10.3,6.2c0.5,0.1,0.9,0.1,1.4,0.1c3.7,0,7.3-1.5,9.9-4.1
				l14.9-14.9v81.8c0,3.3,2.7,6,6,6s6-2.7,6-6v-81.8l14.9,14.9c3,3,7.1,4.5,11.3,4c4.2-0.4,7.9-2.7,10.3-6.2l20.9-31.4l49.8,18.1
				c10.3,3.7,17.2,13.6,17.2,24.5v57.7c0,3.3,2.7,6,6,6s6-2.7,6-6v-57.7c0-9.9-3.8-19.2-10.7-26.4l-1.7-1.8l4.3-1.2
				c1.8-0.5,4.3-1.2,6.7-2.4l1-0.5l20.3,20.4v69.7c0,3.3,2.7,6,6,6s6-2.7,6-6v-69.7l20.2-20.2l1,0.5c1,0.5,2,0.9,2.9,1.2l31,8.8
				c7.7,2.2,13.1,9.3,13.1,17.4v62.1c0,3.3,2.7,6,6,6s6-2.7,6-6v-62.1C510.5,361,501.5,349.1,488.7,345.5z M49.6,332.9l-2-0.7
				C33.2,327,25.9,320,22.9,316.3l-0.5-0.7l0.3-0.8c1.8-4.8,3.2-10.6,4.2-17.6l0.8-5.4l2.1,5.1c4,9.6,10.7,17.8,19.3,23.8l0.7,0.4
				v11.8H49.6z M92.1,352.2c-3.5,3.3-8,5-12.4,5c-4.5,0-9-1.6-12.4-5l-7.8-7.4l0.5-1c1.1-2,1.7-4.3,1.7-6.6v-10l1.9,0.6
				c10.4,3.2,21.7,3.3,32.2,0l1.9-0.6v10c0,2.3,0.6,4.6,1.7,6.6l0.5,1L92.1,352.2z M79.7,318.2c-23.2,0-42.1-18.9-42.1-42.1
				c0-3.3-2.7-6-6-6c-0.3,0-0.6,0-1,0.1l-1.8,0.3l0.1-3.8c0.1-4.9,0.3-10,0.6-14.3c1-13.8,6.5-26.6,15.6-35.9
				c9.2-9.5,21.5-14.7,34.6-14.7s25.4,5.2,34.6,14.7c9.1,9.3,14.6,22.1,15.6,35.9c0.3,4.3,0.5,9.3,0.6,14.3l0.2,6.7l-2.9-4.5
				c-8.1-12.4-20.3-21.3-36.2-26.5c-14.7-4.7-27.5-4.5-28-4.4c-1.6,0-3.1,0.7-4.1,1.8l-13.5,14c-2.3,2.4-2.2,6.2,0.2,8.5
				s6.2,2.2,8.5-0.2L66.2,250h0.7c9.6,0.5,41.8,4.1,54.3,31.7l0.2,0.4l-0.1,0.4C118.1,303.2,100.6,318.2,79.7,318.2z M109.7,333
				v-11.9l0.7-0.5c8.6-5.9,15.3-14.1,19.3-23.8l2.1-5.1l0.8,5.5c1,7,2.3,12.8,4.2,17.6l0.3,0.8l-0.5,0.7
				c-3.1,3.7-10.3,10.8-24.7,15.9L109.7,333z M181.9,209.1v-18.6c0-0.9-0.2-1.8-0.6-2.6c-4.9-10.2-7.4-21-7.4-32.2v-16
				c0-32.1,26.1-58.1,58.2-58.1h106.3v74.2c0,11.1-2.5,22-7.4,32.2c-0.4,0.8-0.6,1.7-0.6,2.6V212c0,20.7-8.3,40-23.5,54.1
				c-1.9,1.8-3.9,3.4-5.9,5l-0.1,0.1c-13,9.9-28.3,15-44.6,15c-1.7,0-3.4,0-5.1-0.2C212.3,283.4,181.9,249.7,181.9,209.1z
				 M226.7,361.1c-0.5,0.5-1,0.6-1.4,0.6c-0.1,0-0.2,0-0.2,0c-0.3,0-1-0.2-1.5-0.9l-24-36l9.2-9.7l37.9,25.9L226.7,361.1z
				 M256.1,332.9L214,304.1v-17.3l2.2,1.2c10.7,5.8,22.2,9.1,34.2,9.9c1.9,0.1,3.9,0.2,5.8,0.2c14.1,0,27.5-3.3,39.8-9.8l2.2-1.2v17
				L256.1,332.9z M288.6,360.8c-0.5,0.7-1.1,0.9-1.5,0.9c-0.1,0-0.1,0-0.2,0c-0.4,0-0.9-0.1-1.4-0.6L265.4,341l37.9-25.9l9.2,9.7
				L288.6,360.8z M424.3,355.8l-18.7-18.7l0.2-0.8c0.3-1.3,0.4-2.7,0.4-4.1V327l2,0.6c4.7,1.5,9.6,2.4,14.4,2.5
				c6.1,0.2,12-0.6,17.8-2.4l2-0.6v5c0,1.3,0.2,2.7,0.5,4l0.2,0.8L424.3,355.8z M424.3,318.2c-0.4,0-0.9,0-1.3,0
				c-22.5-0.7-40.8-20.5-40.8-44.1v-14c0-0.9-0.2-1.9-0.6-2.7l-4.6-9.3c-1.8-3.6-2.8-7.6-2.8-11.7v-0.5c0-18.8,15.3-34.1,34.1-34.1
				h66.2v32.7c0,5.3-1.2,10.5-3.6,15.3l-3.8,7.6c-0.4,0.8-0.6,1.8-0.6,2.7v16c0,11.5-4.5,22.2-12.8,30.2
				C445.7,314,435.3,318.2,424.3,318.2z"/>
		</g>
	</g>
</g>
<g>
	<g>
		<g>
			<path class="st0" d="M478.4,388.3v48.1c0,3.3-2.7,6-6,6s-6-2.7-6-6v-48.1c0-3.3,2.7-6,6-6S478.4,385,478.4,388.3z"/>
		</g>
	</g>
</g>
<g>
	<g>
		<g>
			<path class="st0" d="M45.6,398.2v38.2c0,3.3-2.7,6-6,6s-6-2.7-6-6v-38.2c0-3.3,2.7-6,6-6S45.6,394.9,45.6,398.2z"/>
		</g>
	</g>
</g>
<g>
	<g>
		<g>
			<path class="st0" d="M318.2,163.8c0,1.6-0.6,3.1-1.8,4.2c-1.1,1.1-2.6,1.8-4.2,1.8s-3.1-0.6-4.2-1.8
				c-10.3-10.3-27.5-16.3-51.3-17.9c-20-1.3-39.3,0.9-49,2.4c-1,0.2-1.7,1-1.7,2v17.3c0,3.3-2.7,6-6,6s-6-2.7-6-6v-17.3
				c0-7,5-12.8,11.9-13.8c9-1.4,22.9-3,38.3-3c12.7,0,26.5,1.1,39.2,4.4c12.7,3.3,24.4,8.8,33.1,17.5
				C317.6,160.7,318.2,162.2,318.2,163.8z"/>
		</g>
	</g>
</g>
<g>
	<g>
		<g>
			<path class="st0" d="M173.9,404.4v32.1c0,3.3-2.7,6-6,6s-6-2.7-6-6v-32.1c0-3.3,2.7-6,6-6S173.9,401,173.9,404.4z"/>
		</g>
	</g>
</g>
<g>
	<g>
		<g>
			<path class="st0" d="M350.3,404.4v32.1c0,3.3-2.7,6-6,6s-6-2.7-6-6v-32.1c0-3.3,2.7-6,6-6C347.6,398.4,350.3,401,350.3,404.4z"/>
		</g>
	</g>
</g>
</svg>
