<?xml version="1.0" encoding="utf-8"?>
<!-- Generator: Adobe Illustrator 22.0.1, SVG Export Plug-In . SVG Version: 6.00 Build 0)  -->
<svg version="1.1" id="Layer_1" xmlns="http://www.w3.org/2000/svg" xmlns:xlink="http://www.w3.org/1999/xlink" x="0px" y="0px"
	 viewBox="0 0 200.8 200.8" style="enable-background:new 0 0 200.8 200.8;" xml:space="preserve">
<style type="text/css">
	.st0{fill:#F0C18D;}
</style>
<g>
	<g>
		<g>
			<g>
				<path class="st0" d="M92.1,90.1c-0.2-0.7-0.6-1.3-1.3-1.6L46,62.6c-0.6-0.4-1.4-0.5-2.1-0.3c-0.7,0.2-1.3,0.6-1.6,1.3L24.8,94
					c-7.1,12.2-4,28,7.1,36.7l0.7,0.5l-15.8,27.5l-12.7-7.3L1.4,156l30.3,17.5l2.7-4.7l-12.9-7.5L37.2,134l0.8,0.4
					c6,2.7,12.6,3.1,18.9,1.5c7.4-2,13.5-6.7,17.3-13.3l17.6-30.4C92.2,91.5,92.3,90.8,92.1,90.1z M69.6,119.9
					c-3.1,5.3-8.1,9.2-14.1,10.8c-2,0.5-4,0.8-6,0.8c-4,0-8-1-11.5-3.1c-11.1-6.4-14.9-20.6-8.5-31.6l16.2-28.1l40.1,23.2
					L69.6,119.9z"/>
			</g>
			<g>
				<path class="st0" d="M196.5,148.8l-13.1,8.4l-16-27.7l0.6-0.5c9.6-9.1,11.7-23.5,5.1-35l-17.6-30.4c-0.4-0.6-0.9-1.1-1.6-1.3
					c-0.7-0.2-1.4-0.1-2,0.3l-44.8,25.9c-0.6,0.4-1.1,0.9-1.3,1.6c-0.2,0.7-0.1,1.4,0.3,2l17.6,30.4c3.8,6.6,10,11.3,17.3,13.3
					c7.1,1.9,14.7,1,21.2-2.6l0.8-0.5l15.8,27.3l-14.5,9.2l2.9,4.5l32.1-20.5L196.5,148.8z M159.9,128.3c-3.6,2.1-7.5,3.1-11.5,3.1
					c-2,0-4-0.3-6-0.8c-6-1.6-11-5.4-14.1-10.8l-16.2-28.1l40.1-23.2l16.2,28.1C174.8,107.7,171,121.9,159.9,128.3z"/>
			</g>
			<g>
				
					<rect x="65.8" y="137.8" transform="matrix(0.5996 -0.8003 0.8003 0.5996 -81.351 118.4899)" class="st0" width="23.9" height="5.4"/>
			</g>
			<g>
				<rect x="95.3" y="137.9" class="st0" width="5.4" height="23.9"/>
			</g>
			<g>
				
					<rect x="115.6" y="128.7" transform="matrix(0.8002 -0.5997 0.5997 0.8002 -60.7097 99.0717)" class="st0" width="5.4" height="23.9"/>
			</g>
			<g>
				<polygon class="st0" points="127.9,39.8 113.6,58.9 109.2,55.7 123.6,36.6 				"/>
			</g>
			<g>
				<rect x="95.5" y="26.6" class="st0" width="5.4" height="23.9"/>
			</g>
			<g>
				<polygon class="st0" points="87.2,55.7 82.9,58.9 68.6,39.8 72.9,36.6 				"/>
			</g>
		</g>
	</g>
</g>
</svg>
